<svg xmlns="http://www.w3.org/2000/svg" viewBox="0 0 2538.22 2529"><defs><style>.cls-1{fill:#edbe27;}.cls-2{fill:#b3e0d1;}.cls-3{fill:#c3ebdd;}.cls-4{fill:#e4f5ef;}.cls-5{fill:#1d2f54;}.cls-6{fill:#f1af9f;}.cls-21,.cls-7{fill:#f48574;}.cls-8{fill:#f48b9a;}.cls-9{fill:#e36068;}.cls-10{fill:#558ad6;}.cls-11{fill:#315299;}.cls-12{fill:#fff;}.cls-13{fill:#055437;}.cls-14{fill:#012b17;}.cls-15{fill:#5bc279;}.cls-16{fill:#98fe43;}.cls-17{fill:#c7ecff;}.cls-18{fill:#87c6ff;}.cls-19{fill:#fdcb2a;}.cls-20{fill:#c64740;}.cls-21{opacity:0.65;}.cls-22{fill:#a5c4d4;}.cls-23{fill:#91acba;}</style></defs><g id="Layer_2" data-name="Layer 2"><g id="Layer_1-2" data-name="Layer 1"><polygon class="cls-1" points="769.47 2510.47 744.76 2510.47 816.83 2216.23 862.13 2216.23 769.47 2510.47"/><path class="cls-2" d="M917.73,1690.92l234.74-705.87,184.3-165.6L1628.3,782S1762,787,1768.16,840.49s-115.31,659.61-115.31,659.61l-216.21,221.71Z"/><path class="cls-3" d="M1137.28,1241.73,1101,1347.62l-31.34,91.51-9.51,27.75-62,181.17-73.68,215.06L861,2048.27l-3.46,10.13H166.3l38.63-284.21,24.63-181.29,5.93-43.77L249,1449.5A193.23,193.23,0,0,1,423.78,1283l521.87-30.23Z"/><path class="cls-4" d="M355.06,2078.27l82.72-608.88a193.2,193.2,0,0,1,174.76-166.48l588.07-51-154.32,826.36Z"/><polygon class="cls-4" points="1336.77 2220.83 702.46 2220.83 661.94 2208.55 471.47 2150.86 396.55 2128.16 334.37 2109.3 295.65 2097.61 204.23 2069.89 166.3 2058.4 204.1 2057.86 305.75 2056.38 324.32 2056.09 340.01 2055.84 409.9 2054.86 470.6 2053.95 690.6 2050.74 725.65 2050.24 740.76 2050 861.02 2048.27 899.36 2047.69 1033.29 2045.76 1077.64 2045.1 1336.77 2220.83"/><path class="cls-2" d="M774.16,1736.22,740.76,2050l-.9,8.4-17.3,162.43h-20.1l-40.52-12.28-15.69,86.28-41.51-4.69-131.13-10.42c-.7-32.95-1.53-77.84-2.14-128.86l-74.92-22.7-23.22,127.92a51.38,51.38,0,0,0-.42,15.65l-87.51-6.92-30.1-2.39-47.57-3.79c-.62-23.51-2.39-97.11-3.5-188.74L166.3,2058.4l38.63-284.21c.7-31.26,1.69-61.07,3-88.29,1.77-36.7,6.76-68.12,13.8-95.05l7.83,2.05L396.92,1637H397l84.79,22.32,7.21,1.9,260.69,68.61h0l18.82,4.94Z"/><polygon class="cls-1" points="258.47 2350.33 233.76 2350.33 305.83 2056.09 351.13 2056.09 258.47 2350.33"/><polygon class="cls-1" points="1579.41 2518.7 1604.12 2518.7 1532.05 2224.46 1486.74 2224.46 1579.41 2518.7"/><polygon class="cls-1" points="1036.53 2350.33 1061.24 2350.33 989.17 2056.09 943.87 2056.09 1036.53 2350.33"/><path class="cls-5" d="M1061.33,768.54c-9.76-1.15-110.65-46.7-116.83-131s35-86.37,30.89-244.92,72.07-217.24,180.17-154.44c110.64,64.28,103,23,177.08,82.71s2.07,136.51,126.65,164.35,191.5,47,184.29,181,91.64,111.42,76.19,202S1612.7,1001.1,1539.6,979.48,1061.33,768.54,1061.33,768.54Z"/><path d="M1042,382.2s-28.52,34.1-38.82,95.87S920,673.71,1039.31,759.16s497.2,177.63,497.2,177.63,72.07-79.49,0-157.39-2.06-114.89-36-182.37-91.63-61.64-145.17-62-53.19-73.1-53.19-73.1l-71.1,2.75Z"/><path class="cls-6" d="M1039.92,1347.74l-75.41,97.48-57.16,73.88-104.48,34.39-22.28,7.33-9,3-281.32,92.54h0l-8.45,2.8,0,.16-63.63,350.18c-.16,1-.33,1.9-.49,2.8l-7.74,42.59c-.25,1.19-.5,2.39-.66,3.54l-1.32,7.17-11.37,62.59-23.22,127.92a51.38,51.38,0,0,0-.42,15.65c.79,6.59,4.29,12.4,6,18.86,12.39,46.91,25.69,66.8,27.8,86.73,6.63,62.52-46.38,60.17-46.38,60.17H273.83l-33.61-87.14-3.95-10.26L210.78,2274l-.05-.08-2.8-7.29s-.08-2.76-.2-7.95c-.62-23.51-2.39-97.11-3.5-188.74q-.06-5.68-.13-11.49v-.54c-1-88.66-1.23-192.45.83-283.67.7-31.26,1.69-61.07,3-88.29,1.77-36.7,6.76-68.12,13.8-95.05a333,333,0,0,1,13.76-41.72c31.34-76.81,79.44-103.5,95.05-110.37,6.87-3,13.63-6.39,20.34-9.85l82.49-22.4h0l428.72-116.43,101.77,33Z"/><path class="cls-7" d="M326.79,2437.49h-53l-33.61-87.14-3.95-10.26L210.78,2274l-.05-.08v-.41S317.44,2348.08,326.79,2437.49Z"/><path class="cls-8" d="M292.4,2439.67H0c37.07-109.13,205.92-170.91,205.92-170.91a409.58,409.58,0,0,1,36.53,43.7C295.33,2385.85,292.4,2439.67,292.4,2439.67Z"/><path class="cls-9" d="M292.4,2439.67H25.62c44.39-32.12,61.52,4.16,93.15-23.92,37.07-32.95,48.39-46.33,92-37.27,34.1,7.08,39.21-30.19,31.72-66C295.33,2385.85,292.4,2439.67,292.4,2439.67Z"/><path class="cls-9" d="M396.41,2435.57H0v10.3a10.29,10.29,0,0,0,10.29,10.29h386.1a10.29,10.29,0,0,0,10.29-10.29h0A10.3,10.3,0,0,0,396.41,2435.57Z"/><path class="cls-7" d="M875.84,1394.44s-43.73,72.65-104.23,169.35l-281.32,92.54h0l-8.45,2.8,0,.16-63.63,350.18c24.36-219.69,18.78-335,35.26-403.41S579,1476.77,589.29,1461.32s-90.11-60.54-90.11-60.54Z"/><path class="cls-6" d="M946.89,1664.85l-50,16.43L770.09,1723l-20.39,6.76h0l-.78.24-46.42,255.42-11.86,65.28-1.4,7.66-27.26,150.15-15.69,86.28L640.4,2327c-2.14,11.78,2,23.06,5.56,34.51,48.68,157.19-18.57,146.9-18.57,146.9H540.9L475,2337.5s-.62-21.75-1.4-57.78c-.7-32.95-1.53-77.84-2.14-128.86-.42-29.16-.7-60.34-.87-92.46,0-1.48,0-3,0-4.45-.53-101.6.29-212,4.41-297.14,1.81-36.94,6.83-68.57,14-95.62.41-1.65.86-3.26,1.28-4.86h0c29.11-105,89.49-138.79,107.32-146.66,6.88-3,13.63-6.38,20.35-9.8l0,0s.08,0,.16-.08l10.34-5.27,137.18-70.1,152.05,118.28Z"/><path class="cls-7" d="M591.6,2508.41H540.9L475,2337.5S587.27,2416,591.6,2508.41Z"/><path class="cls-7" d="M897.14,1537.8l-.21,143.48L770.09,1723l-20.39,6.76h0l-.78.24-46.42,255.42s5.23-144.22,6.22-221.52,31.52-72.2,61.3-113.87c56.89-79.61-111.45-185.91-111.45-185.91l39.54-18.79Z"/><path class="cls-10" d="M1228.66,1645.25l-203,42.38-163.58,34.18a223,223,0,0,0-7.08-66.27c-38.39-144.43-219-215.88-318.56-244.83-39.53-11.49-66.26-16.27-66.26-16.27l391.9-104.36a.38.38,0,0,1,.13,0l180.79,34.06,254.31,47.94,19.85,3.75C1352.21,1561.19,1228.66,1645.25,1228.66,1645.25Z"/><path class="cls-6" d="M1077.64,724.47s-11.41,74.79-25.45,160.62c-18,109.42-40.19,236.76-48.68,249.86-15.07,23.35-61.77,92-118,112.55-.74.29-1.6.58-2.59.87-18.82,6.38-51.73,11.86-89.58,16.72a5,5,0,0,1-.78.08c-17.62,2.26-36.28,4.36-55.1,6.38-68.49,7.29-138.67,13.1-166.34,18.53-22.32,4.37-35.46,9.56-44.44,15.45l0,0c-12.11,7.91-16.84,17-26.89,27.1-17.5,17.54-43.94,32.57-46,27.43s15.32-30,24.58-46.5-26.64,2.55-45.5,8.73c-16.68,5.44-48.23,56.3-60.75,59.72s-13.38-8.24-13.38-8.24S346.23,1400,335,1393.37s-1-26.77-1-26.77-14.42,6.18-15.45,0,29.94-67.95,43.94-81.33c46.67-44.61,139.53-61.12,159.92-68,42.25-14.21,260.15-76.89,280.75-92,18.78-13.8,62.72-90.48,114.07-209.17q7.42-17.05,14.95-35.21,6.18-14.9,12.81-28C1002,739.88,1077.64,724.47,1077.64,724.47Z"/><path class="cls-7" d="M706.25,1278.39c.46-.13,3.21-.58,7.83-1.24a62.07,62.07,0,0,1-7.75,1.24Z"/><path class="cls-7" d="M1052.19,885.09c-18,109.42-40.19,236.76-48.68,249.86-15.07,23.35-61.77,92-118,112.55-.74.29-1.6.58-2.59.87-14.13,4.2-52.31,10.78-89.58,16.72a5,5,0,0,1-.78.08c-17.62,2.26-36.28,4.36-55.1,6.38,51-13.3,144.67-42.13,159.42-51.15,33.69-20.59,97.07-223.42,86.52-250.19-7.86-20-46.9-43.45-66.18-54q7.42-17.05,14.95-35.21,6.18-14.9,12.81-28Z"/><path class="cls-10" d="M1486.76,813.72s-25.58,98.3-56.51,211c-38.83,141.79-86.07,306.49-101.39,327.12-5.15,7-16.43,13.88-31.5,20.26-65.4,27.72-202.38,46-222.43,18.16-9.76-13.51-44.94-32-84-49.38-58.31-26-125.28-49.58-128.69-50.78a.38.38,0,0,0-.13,0S917,1235.15,967.85,1161s-33.65-139.33,14-215.72c2.68-4.24,5.35-8.86,8.07-13.68,41.27-73.43,87.72-207.15,87.72-207.15l29.66-9.72,18.12-6a1.25,1.25,0,0,0,.28-.08s114-11.66,211.07,15.44c9.84,2.76,19.27,5.85,28.17,9.27C1444.05,763.27,1486.76,813.72,1486.76,813.72Z"/><path class="cls-11" d="M1430.25,1024.74c-38.83,141.79-86.07,306.49-101.39,327.12-5.15,7-16.43,13.88-31.5,20.26l19.85,3.75c35,185.32-88.55,269.38-88.55,269.38l-203,42.38c-57.82-3.05-108-6.31-108-6.31l-62.68-25.78c-38.39-144.43-219-215.88-318.56-244.83a113.67,113.67,0,0,1,66.19,2.47c75.48,25.62,192.2,38.88,236.1,0,26.73-23.68,88.54-50.41,152.17-72.28,17.46-6,35-11.61,52.1-16.72,23-6.87,44.93-12.8,64.2-17.38,85.87-20.34,41.8-137.55,128.87-170.49S1350.85,956.5,1350.85,956.5,1394.38,993,1430.25,1024.74Z"/><path class="cls-8" d="M561.49,2508.41H269.09C306.16,2399.27,475,2337.5,475,2337.5a404.94,404.94,0,0,1,34.55,41C564.46,2453.26,561.49,2508.41,561.49,2508.41Z"/><path class="cls-9" d="M665.48,2508.41H269.09v10.29a10.3,10.3,0,0,0,10.3,10.3H665.48a10.3,10.3,0,0,0,10.3-10.3h0A10.3,10.3,0,0,0,665.48,2508.41Z"/><path class="cls-3" d="M1673.44,1404.16l-279.72,816.67H702.46l22.08-162.43,1.11-8.16,42.87-315.5,1.57-11.7,15.11-111.11a193.16,193.16,0,0,1,174.74-166.46l4.57-.25,105.14-18.45,77.8-4.53,54.94-15.53,395.15-22.85Z"/><path class="cls-4" d="M875.86,2220.81l82.72-608.88a193.2,193.2,0,0,1,174.76-166.48l588.07-51L1567.1,2220.81Z"/><circle class="cls-2" cx="1174.44" cy="1619.54" r="30.53"/><circle class="cls-2" cx="1497.87" cy="1619.54" r="30.53"/><circle class="cls-2" cx="1133.39" cy="1938.2" r="30.53"/><path class="cls-4" d="M1787,779.4H1602.06q3,0,6,.12c84.05,3.52,141.7,86.6,119,167.6L1369.57,2220.81h263.65l276.2-1276.38c22.32-79.46-34-161.18-116.42-164.9Q1790,779.4,1787,779.4Z"/><circle class="cls-2" cx="1456.81" cy="1938.2" r="30.53"/><path class="cls-6" d="M1539.6,979.48c-2.8,11.94-5.77,24.09-8.82,36.32-7,28.09-14.74,56.71-22.81,85-40,140.07-89,270.83-114.57,283.1-33,15.81-367.24,55.84-383,58.6s-84.22,52.31-91.67,62-42.17,70.47-51.11,68.41c-8.53-2-5.73-19.73-5.52-21.17-.86,2-14.79,34.31-28.09,36.28-13.75,2.06-12.35-17.83-12.35-17.83s-13.76,32.25-28.17,35.67c-13.88,3.33-4.2-26.45-3.46-28.71-4.9,10.13-17.13,4-15.73-4.9s36.54-94.78,41.84-103c7.56-11.68,71.41-74.13,130.43-93.32s343.88-154.48,343.88-154.48c15.81-39.54,29.69-99.58,43.49-161.81,3.7-16.8,7.41-33.77,11.16-50.53,18.53-82.86,37.76-160.61,62-189.65C1460.85,755.2,1580.78,803.75,1539.6,979.48Z"/><path class="cls-7" d="M1530.78,1015.8c-7,28.09-14.74,56.71-22.81,85-64.87-30.06-131.34-38.91-174-41.14,3.7-16.8,7.41-33.77,11.16-50.53Z"/><path class="cls-5" d="M1656.11,744.89S1674,772,1688.89,787s44.81,49.78,26,101.33-87.79,48.47-87.79,48.47l-21.62-175.54Z"/><path class="cls-10" d="M1125.7,708.7s-5.14,19.23-13.09,47.11c-22.78,79.57-68.7,229.81-84.72,206.17-7.2-10.63-21.74-21.09-38-30.36-32.7-18.65-72.19-32.45-72.19-32.45,5.31-28,64.78-113.58,87.51-140,15.24-17.75,72.2-36.41,102-45.26,9.85-2.88,16.72-4.74,18.17-5.11A1.25,1.25,0,0,0,1125.7,708.7Z"/><path class="cls-12" d="M1364.94,733.41c-27.22,45.47-126.39,134.83-190.52,109.83-38.21-14.9-54.69-54.89-61.81-87.43a240.69,240.69,0,0,1-5.31-41.06,5,5,0,0,0,0-.86c9.85-2.88,16.72-4.74,18.17-5.11a1.25,1.25,0,0,0,.28-.08s114-11.66,211.07,15.44C1346.61,726.9,1356,730,1364.94,733.41Z"/><path class="cls-6" d="M1336.77,724.14s-64.86,104-143.11,94.72-68-110.16-68-110.16c8.65-7.29,13.76-19.44,16.77-32.53,6.3-27.47,3.13-59.1,3.13-59.1l76.31-65.81,44.27-38.18s26.32,140,30.43,169.88S1336.77,724.14,1336.77,724.14Z"/><path class="cls-7" d="M1244.44,550.51s-25.37,106.34-102,125.66c6.3-27.47,3.13-59.1,3.13-59.1l76.31-65.81Z"/><path class="cls-7" d="M1228.66,484.25l22.65-44.61s38.44-18.54,50.8,22.3-50.8,73.1-50.8,73.1Z"/><path class="cls-6" d="M1251.31,439.65V535s-28.13,83.77-117.37,101.6c-45,9-68.53-50.24-80.8-111.24-1.36-6.75-2.55-13.55-3.67-20.26s-2-13.14-2.88-19.52c-.86-6.55-1.65-13-2.31-19.11-3.87-35.58-4.36-62.56-4.36-62.56-.08-1.85-6.47-29.15,24-43.24,20.1-9.27,26.27-30.19,26.27-30.19s23,18,40.32,21.25C1237.39,372,1251.31,439.65,1251.31,439.65Z"/><path class="cls-13" d="M1282.16,1869.92l-7.65-79.42s49.28,81.58,76.31,98.88,55.68,79.47,55.68,79.47v43.25l18.11-27.57s13.25,35.14,26.76,54.06,55.15,37.85,55.15,37.85l115.69,156.24-42.57,13.66-97.45-65-159-211.38Z"/><path class="cls-14" d="M2034.73,1745.24,1922,1877.14l-86.18,96.95-180.38,165.77,30.88-199.26s64.62-74.38,73.64-94-8.93,96.86-8.93,96.86l72.63-138.12s63.11-2.76,116.51-24.66S2034.73,1745.24,2034.73,1745.24Z"/><path class="cls-15" d="M1922,1877.14S1814.38,2031.31,1800.44,2070s-59.39,173.91-79.35,202.11-105.42,121.29-105.42,121.29l-15.15-230.56s69.37-85.48,93.5-107.56,62.77-78.73,90.93-108,47.45-25.68,71.57-26.47S1922,1877.14,1922,1877.14Z"/><path class="cls-13" d="M1816.29,1305.51s-21.08,21.08-26,48.66-25.95,89.2-25.95,89.2L1733.58,1359s-27.57,68.12-73.8,107-94.88,51.9-117.58,162.19-63.26,204.36-63.26,220.58S1513,1920.2,1513,1920.2l-34.06-19.46s-4.86,100.55,0,134.61,111.91,231.93,111.91,231.93h27.57l105.43-413.58L1865,1477.43l136.24-159,180-171.91s-35.68-6.49-86,32.43-134.61,34.06-163.8,47S1894.14,1265,1816.29,1305.51Z"/><path class="cls-13" d="M1497.87,2158.61s-98.4-106.89-120-153.46S1261.61,1764,1261.61,1764l8.5,158.84,2.32,62.27,12.43,37.31,51.36,37.84Z"/><path class="cls-16" d="M1261.61,1764s4.87,115.69,10.28,182.73,20.54,74.61,20.54,74.61,78.93,47.57,113.53,51.9,58.39,15.13,58.39,15.13,49.73,58.39,69.74,99.48,45.55,58.53,45.55,58.53-49.34-23.93-109.89-45.56-68.11-46.49-94.06-75.69-97.32-104.88-97.32-104.88-6.48-8.65-9.73-48.65S1261.61,1764,1261.61,1764Z"/><path class="cls-15" d="M2181.21,1146.57s-225.44,215.71-293.55,371.4-86,274.1-144.35,381.14-74.61,358.44-74.61,358.44l-58.38,9.73L1539,2093.74l50.28,21.08-63.25-73s-8.27-64.88,11.77-140.54c12-45.42,7-83.4,7-83.4l91.53,89.32-51.9-173.54s29.19-22.7,98.93-137.86,147.59-170.29,231.93-227.06S2181.21,1146.57,2181.21,1146.57Z"/><rect class="cls-17" x="1429.46" y="2219.91" width="385.49" height="71.66"/><polygon class="cls-17" points="1790.72 2279.23 1788.59 2291.57 1763.84 2435.53 1748.52 2524.71 1495.9 2524.71 1455.83 2291.57 1453.7 2279.23 1790.72 2279.23"/><polygon class="cls-18" points="1814.96 2219.91 1814.96 2291.57 1788.59 2291.57 1763.84 2435.53 1695.03 2291.57 1689.15 2279.23 1683.61 2267.66 1478.2 2220.35 1483.31 2219.91 1814.96 2219.91"/><path class="cls-13" d="M1759.65,1867.33c-.14-1-14.52-99.36-33.7-150.5-19.29-51.44-34.43-135.37-34.58-136.21l3.19-.58c.15.84,15.24,84.49,34.43,135.65,19.3,51.47,33.73,150.18,33.87,151.17Z"/><path class="cls-13" d="M1824.76,1691.93h-3.24c0-.39-.08-39.13-8.14-72.6-8.14-33.8-16.52-161.67-16.61-162.95l3.24-.21c.08,1.28,8.45,128.87,16.52,162.4C1824.69,1652.43,1824.76,1691.54,1824.76,1691.93Z"/><path class="cls-13" d="M1835.64,1659l-3.24-.15c0-.8,3.7-80.5.49-130.65-3.22-50.46,10.47-114.42,10.61-115.06l3.17.69c-.13.63-13.73,64.16-10.54,114.16C1839.34,1578.35,1835.68,1658.23,1835.64,1659Z"/><path class="cls-10" d="M1340.43,1030.17s136.63,20.35,183.86,56.39c0,0,38.22-134.42,20.45-225-8.67-44.21-56-67.92-85.72-83.37C1272,680.87,1343.51,869.55,1340.43,1030.17Z"/><path class="cls-5" d="M1181.42,252.45s24.59-75,97.69-54.42-20.59,96.78-20.59,96.78l-77.1-38.1Z"/><path class="cls-19" d="M1180.23,251.83s65,22.14,89.91,32.57S1211.32,233.82,1180.23,251.83Z"/><path class="cls-20" d="M1120.81,542.36s-24.49-5.06-44.82.41a3.43,3.43,0,0,0-2,5.12c5.4,8.65,20.8,29.07,46,29.67s41.55-19.08,47.36-27.46a3.43,3.43,0,0,0-1.77-5.21C1145.51,538.47,1120.81,542.36,1120.81,542.36Z"/><path class="cls-12" d="M1077.58,545.32c14,2.78,51.22,8.74,86.15,2.31a1.6,1.6,0,0,1,1.3,2.83c-12.6,10-49,32.32-88.83-2.31A1.63,1.63,0,0,1,1077.58,545.32Z"/><path class="cls-7" d="M1118.46,514.15h0a12.75,12.75,0,0,1-12.2-14.89l6-29.82a7.55,7.55,0,0,1,7.67-6.29h0a7.57,7.57,0,0,1,7.31,6.72l4.2,30.12A12.75,12.75,0,0,1,1118.46,514.15Z"/><path class="cls-21" d="M1227.34,504.43c1.57,11-11.81,22-29.87,24.57s-34-4.25-35.56-15.24,11.81-22,29.88-24.57S1225.78,493.44,1227.34,504.43Z"/><path class="cls-21" d="M1090.37,511.27c-1.81,11-17.92,17.42-35.91,14.37-.46-.08-.91-.16-1.32-.25-1.36-6.75-2.55-13.55-3.67-20.26s-2-13.14-2.88-19.52a51.13,51.13,0,0,1,14.54.37C1079.13,489,1092.22,500.31,1090.37,511.27Z"/><path class="cls-5" d="M1266,424.65h-233.5a6.45,6.45,0,0,0-6.34,7.64l7.88,42.34a6.46,6.46,0,0,0,6.35,5.28H1099a6.46,6.46,0,0,0,6.35-5.28l6.6-35.45a7.29,7.29,0,0,1,7.17-5.95h5.49a7.29,7.29,0,0,1,7.17,5.95l6.61,35.45a6.45,6.45,0,0,0,6.34,5.28h58.6a6.46,6.46,0,0,0,6.35-5.28l6.77-36.33a6.2,6.2,0,0,1,6.1-5.07H1266Z"/><path class="cls-9" d="M1041.32,468.59l-5.82-31.24a3.78,3.78,0,0,1,3.71-4.47h61a3.78,3.78,0,0,1,3.71,4.47l-5.82,31.24a3.76,3.76,0,0,1-3.71,3.08H1045A3.76,3.76,0,0,1,1041.32,468.59Z"/><path class="cls-10" d="M1145.65,468.59l-5.82-31.24a3.78,3.78,0,0,1,3.71-4.47h61a3.78,3.78,0,0,1,3.71,4.47l-5.82,31.24a3.76,3.76,0,0,1-3.71,3.08h-49.36A3.76,3.76,0,0,1,1145.65,468.59Z"/><path class="cls-9" d="M561.49,2508.41H282.89c43.69-45.84,124.33-4.16,146.82-46.33,24.71-46.33,113.7-26.15,79.85-83.6C564.46,2453.26,561.49,2508.41,561.49,2508.41Z"/><rect class="cls-19" x="539.89" y="553.47" width="103.41" height="26.65" rx="13.32"/><path class="cls-19" d="M692.18,848.67l-69.42,32.77A13.32,13.32,0,0,1,605,875.07h0a13.31,13.31,0,0,1,6.36-17.73l69.42-32.76a13.32,13.32,0,0,1,17.74,6.36h0A13.32,13.32,0,0,1,692.18,848.67Z"/><path class="cls-19" d="M668.51,298.91l-64.74-41.26a13.33,13.33,0,0,1-4.07-18.4h0a13.32,13.32,0,0,1,18.4-4.07l64.73,41.26a13.32,13.32,0,0,1,4.08,18.39h0A13.33,13.33,0,0,1,668.51,298.91Z"/><path class="cls-19" d="M837.16,81.53l-48-59.87a13.32,13.32,0,0,1,2-18.73h0A13.34,13.34,0,0,1,809.89,5l48.05,59.87a13.32,13.32,0,0,1-2.05,18.73h0A13.33,13.33,0,0,1,837.16,81.53Z"/><path class="cls-22" d="M2203.47,207.57h0l-23.35-9.23-113.46-44.72s9-15.74,23.14-36.62c28.79-42.42,79-106.13,118.94-102.17a32.73,32.73,0,0,1,12.35,3.62C2280.77,49.34,2203.47,207.57,2203.47,207.57Z"/><path class="cls-22" d="M2166,375.55H1824.21S1980.79,171.74,2089.76,117c30.72-15.44,57.7-19,76.27-2.84A95.55,95.55,0,0,1,2184,135.08c13.18,20.76,18.7,46.09,19.48,72.49C2205.9,286.93,2166,375.55,2166,375.55Z"/><path class="cls-22" d="M2373.43,2435.91h-37.06V500.71c0-109-88.68-197.68-197.68-197.68V266c129.44,0,234.74,105.31,234.74,234.75Z"/><path class="cls-23" d="M2233.36,2407h243.09a61.77,61.77,0,0,1,61.77,61.77v0a0,0,0,0,1,0,0H2171.58a0,0,0,0,1,0,0v0A61.77,61.77,0,0,1,2233.36,2407Z"/><path class="cls-23" d="M2203.43,207.57c2.47,79.36-37.4,168-37.4,168H1900.61c32.7-54.94,98.55-42.29,128.94-70.87,34-31.92,46.33-47.36,109.14-57.66,30-4.9,39.57-27,41.39-48.68,1.93-23.72-5.36-47.07-5.36-47.07q4.83-8.22,9.23-16.19c29.44-53.66,41.72-96.61,24.75-120.25a32.73,32.73,0,0,1,12.35,3.62c59.72,30.89-17.58,189.12-17.58,189.12Z"/><ellipse class="cls-19" cx="1995.13" cy="375.55" rx="170.91" ry="28.14"/></g></g></svg>