<svg xmlns="http://www.w3.org/2000/svg" viewBox="0 0 677 677"><defs><style>.cls-1{fill:#5f91e0;}.cls-2{fill:#00cfdf;}.cls-3{fill:#f48b9a;}</style></defs><g id="Layer_2" data-name="Layer 2"><g id="Layer_1-2" data-name="Layer 1"><rect class="cls-1" width="677" height="677" rx="55.72"/><ellipse class="cls-2" cx="256.5" cy="333" rx="61.5" ry="55"/><path class="cls-3" d="M335.5,486.5c-81.61,0-148-66.39-148-148s66.39-148,148-148a147.78,147.78,0,0,1,98.37,37.42l-30.58,34.36A102,102,0,1,0,404,414.06l30.91,34.07A147.69,147.69,0,0,1,335.5,486.5Z"/><path class="cls-2" d="M446.78,327c-17.4,17.4-40.41,24.76-60.16,21.27a47.7,47.7,0,0,0,13.13,25.75c21.48,21.48,59.95,17.84,85.92-8.13s29.61-64.44,8.13-85.92a47.7,47.7,0,0,0-25.75-13.13C471.54,286.62,464.18,309.63,446.78,327Z"/></g></g></svg>