<svg xmlns="http://www.w3.org/2000/svg" xmlns:xlink="http://www.w3.org/1999/xlink" viewBox="0 0 551.63 300.84"><defs><style>.cls-1{isolation:isolate;}.cls-2{fill:#68d594;}.cls-3{fill:#f4f4f4;}.cls-36,.cls-4,.cls-61{fill:#fff;}.cls-4{opacity:0.5;}.cls-12,.cls-15,.cls-17,.cls-20,.cls-22,.cls-23,.cls-37,.cls-41,.cls-45,.cls-46,.cls-48,.cls-5,.cls-54,.cls-56,.cls-6{opacity:0.14;mix-blend-mode:multiply;}.cls-5{fill:url(#linear-gradient);}.cls-6{fill:url(#linear-gradient-2);}.cls-7{fill:#dceaf4;}.cls-8{fill:#dfebf4;}.cls-9{fill:#6ca5ff;}.cls-10{fill:#b0dcff;}.cls-11{fill:#fdbb9b;}.cls-12{fill:url(#White_Black_2);}.cls-13{fill:url(#linear-gradient-3);}.cls-14{fill:url(#linear-gradient-4);}.cls-15{fill:url(#White_Black_2-2);}.cls-16{fill:url(#linear-gradient-5);}.cls-17{fill:url(#linear-gradient-6);}.cls-18{fill:url(#linear-gradient-7);}.cls-19{fill:url(#linear-gradient-8);}.cls-20{fill:url(#White_Black_2-3);}.cls-21{fill:#21263a;}.cls-22{fill:url(#White_Black_2-4);}.cls-23{fill:url(#White_Black_2-5);}.cls-24{fill:url(#linear-gradient-9);}.cls-25{fill:url(#linear-gradient-10);}.cls-26{fill:url(#linear-gradient-11);}.cls-27{fill:url(#linear-gradient-12);}.cls-28{fill:url(#linear-gradient-13);}.cls-29{fill:url(#linear-gradient-14);}.cls-30{fill:url(#linear-gradient-15);}.cls-31{fill:url(#linear-gradient-16);}.cls-32{fill:url(#linear-gradient-17);}.cls-33{fill:url(#linear-gradient-18);}.cls-34{fill:url(#linear-gradient-19);}.cls-35{fill:url(#linear-gradient-20);}.cls-37{fill:url(#White_Black_2-6);}.cls-38{fill:url(#linear-gradient-21);}.cls-39{fill:#3f3f3f;}.cls-40{fill:url(#linear-gradient-22);}.cls-41{fill:url(#linear-gradient-23);}.cls-42{fill:#588ddb;}.cls-43{fill:url(#linear-gradient-24);}.cls-44{fill:url(#linear-gradient-25);}.cls-45{fill:url(#White_Black_2-7);}.cls-46{fill:url(#White_Black_2-8);}.cls-47{fill:url(#linear-gradient-26);}.cls-48{fill:url(#White_Black_2-9);}.cls-49{fill:url(#linear-gradient-27);}.cls-50{fill:url(#linear-gradient-28);}.cls-51{fill:url(#linear-gradient-29);}.cls-52{fill:#ff8383;}.cls-53{fill:#efa081;}.cls-54{fill:url(#White_Black_2-10);}.cls-55{fill:url(#linear-gradient-30);}.cls-56{fill:url(#White_Black_2-11);}.cls-57{fill:#e4edf2;}.cls-58{fill:#f2f9ff;}.cls-59{fill:#ccbaa2;}.cls-60{fill:#edeae4;}.cls-61{opacity:0.1;}.cls-62{fill:#ffd9c0;}.cls-63{fill:#f4ccb5;}.cls-64{fill:#939393;}.cls-65{fill:#4f4f4f;}.cls-66{fill:#595959;}.cls-67{fill:none;stroke:#ff8383;stroke-miterlimit:10;stroke-width:2px;opacity:0.9;}</style><linearGradient id="linear-gradient" x1="253.34" y1="297.3" x2="11.87" y2="-89.05" gradientUnits="userSpaceOnUse"><stop offset="0" stop-color="#fff"/><stop offset="1" stop-color="#231f20"/></linearGradient><linearGradient id="linear-gradient-2" x1="84.17" y1="63.65" x2="196.51" y2="397.19" xlink:href="#linear-gradient"/><linearGradient id="White_Black_2" x1="208.69" y1="293.49" x2="190.27" y2="213.55" xlink:href="#linear-gradient"/><linearGradient id="linear-gradient-3" x1="160.15" y1="204.93" x2="222.83" y2="204.93" gradientUnits="userSpaceOnUse"><stop offset="0" stop-color="#ff865b"/><stop offset="1" stop-color="#ffd692"/></linearGradient><linearGradient id="linear-gradient-4" x1="159.93" y1="204.96" x2="223.04" y2="204.96" xlink:href="#linear-gradient-3"/><linearGradient id="White_Black_2-2" x1="219.48" y1="145.51" x2="104.1" y2="345.76" xlink:href="#linear-gradient"/><linearGradient id="linear-gradient-5" x1="269.26" y1="249.16" x2="244.67" y2="238.66" gradientUnits="userSpaceOnUse"><stop offset="0" stop-color="#fdbb9b"/><stop offset="1" stop-color="#eb9c76"/></linearGradient><linearGradient id="linear-gradient-6" x1="276.27" y1="257.93" x2="214.38" y2="215.38" gradientUnits="userSpaceOnUse"><stop offset="0" stop-color="#fff"/><stop offset="0.66" stop-color="#6e6c6c"/><stop offset="1" stop-color="#231f20"/></linearGradient><linearGradient id="linear-gradient-7" x1="133.61" y1="205.45" x2="257.76" y2="205.45" xlink:href="#linear-gradient-3"/><linearGradient id="linear-gradient-8" x1="133.31" y1="205.47" x2="258.01" y2="205.47" xlink:href="#linear-gradient-3"/><linearGradient id="White_Black_2-3" x1="211.34" y1="180.11" x2="166.76" y2="257.48" xlink:href="#linear-gradient"/><linearGradient id="White_Black_2-4" x1="143.58" y1="108.03" x2="195.66" y2="148.43" xlink:href="#linear-gradient"/><linearGradient id="White_Black_2-5" x1="107.11" y1="145.42" x2="217.28" y2="162.58" xlink:href="#linear-gradient"/><linearGradient id="linear-gradient-9" x1="153.58" y1="130.8" x2="156.36" y2="130.8" xlink:href="#linear-gradient-3"/><linearGradient id="linear-gradient-10" x1="153.37" y1="130.8" x2="156.58" y2="130.8" xlink:href="#linear-gradient-3"/><linearGradient id="linear-gradient-11" x1="151.5" y1="133.61" x2="157.7" y2="133.61" xlink:href="#linear-gradient-3"/><linearGradient id="linear-gradient-12" x1="151.29" y1="133.61" x2="157.92" y2="133.61" xlink:href="#linear-gradient-3"/><linearGradient id="linear-gradient-13" x1="145.92" y1="133.9" x2="152.12" y2="133.9" xlink:href="#linear-gradient-3"/><linearGradient id="linear-gradient-14" x1="145.7" y1="133.9" x2="152.34" y2="133.9" xlink:href="#linear-gradient-3"/><linearGradient id="linear-gradient-15" x1="-319.05" y1="-99.95" x2="-315.67" y2="-99.95" gradientTransform="translate(-176.31 225.72) rotate(146.52)" xlink:href="#linear-gradient-3"/><linearGradient id="linear-gradient-16" x1="-319.27" y1="-99.95" x2="-315.45" y2="-99.95" gradientTransform="translate(-176.31 225.72) rotate(146.52)" xlink:href="#linear-gradient-3"/><linearGradient id="linear-gradient-17" x1="-325.65" y1="-100.61" x2="-322.27" y2="-100.61" gradientTransform="translate(-176.31 225.72) rotate(146.52)" xlink:href="#linear-gradient-3"/><linearGradient id="linear-gradient-18" x1="-325.87" y1="-100.61" x2="-322.06" y2="-100.61" gradientTransform="translate(-176.31 225.72) rotate(146.52)" xlink:href="#linear-gradient-3"/><linearGradient id="linear-gradient-19" x1="156.56" y1="131.54" x2="161.4" y2="131.54" xlink:href="#linear-gradient-3"/><linearGradient id="linear-gradient-20" x1="156.34" y1="131.54" x2="161.62" y2="131.54" xlink:href="#linear-gradient-3"/><linearGradient id="White_Black_2-6" x1="152.02" y1="164.62" x2="165.68" y2="166.74" xlink:href="#linear-gradient"/><linearGradient id="linear-gradient-21" x1="166.58" y1="79.92" x2="112.97" y2="100.92" xlink:href="#linear-gradient-5"/><linearGradient id="linear-gradient-22" x1="207.74" y1="157.41" x2="232.51" y2="86.56" gradientUnits="userSpaceOnUse"><stop offset="0" stop-color="#ff4f4f"/><stop offset="1" stop-color="#ff9292"/></linearGradient><linearGradient id="linear-gradient-23" x1="229.28" y1="100.08" x2="215.6" y2="146.5" gradientUnits="userSpaceOnUse"><stop offset="0" stop-color="#fff"/><stop offset="0.65" stop-color="#706d6e"/><stop offset="1" stop-color="#231f20"/></linearGradient><linearGradient id="linear-gradient-24" x1="330.5" y1="104.99" x2="234.07" y2="150.03" xlink:href="#linear-gradient-5"/><linearGradient id="linear-gradient-25" x1="324.61" y1="129.44" x2="168.77" y2="235.82" gradientUnits="userSpaceOnUse"><stop offset="0" stop-color="#fdbb9b"/><stop offset="0.41" stop-color="#f6ae8c"/><stop offset="1" stop-color="#eb9c76"/></linearGradient><linearGradient id="White_Black_2-7" x1="297.38" y1="111.39" x2="276.27" y2="162.08" xlink:href="#linear-gradient"/><linearGradient id="White_Black_2-8" x1="269.14" y1="131.47" x2="239.58" y2="202.48" xlink:href="#linear-gradient"/><linearGradient id="linear-gradient-26" x1="206.5" y1="168.86" x2="204.75" y2="98.79" xlink:href="#linear-gradient-22"/><linearGradient id="White_Black_2-9" x1="203.16" y1="135.97" x2="216.15" y2="206.62" xlink:href="#linear-gradient"/><linearGradient id="linear-gradient-27" x1="192.45" y1="175.97" x2="195.52" y2="109.6" xlink:href="#linear-gradient-22"/><linearGradient id="linear-gradient-28" x1="245.98" y1="99.66" x2="254.71" y2="99.66" xlink:href="#linear-gradient-22"/><linearGradient id="linear-gradient-29" x1="211.96" y1="96.46" x2="177.14" y2="101.43" xlink:href="#linear-gradient-5"/><linearGradient id="White_Black_2-10" x1="178.47" y1="139.05" x2="214.02" y2="193.39" xlink:href="#linear-gradient"/><linearGradient id="linear-gradient-30" x1="211.06" y1="176.53" x2="217.84" y2="176.53" xlink:href="#linear-gradient-22"/><linearGradient id="White_Black_2-11" x1="98.66" y1="138.25" x2="235.04" y2="159.49" xlink:href="#linear-gradient"/></defs><g class="cls-1"><g id="Layer_2" data-name="Layer 2"><g id="Layer_1-2" data-name="Layer 1"><path class="cls-2" d="M170.91,100.15S166,92.06,167,87.59C167,87.59,171.4,93.87,170.91,100.15Z"/><path class="cls-2" d="M165,96.36s-9.47-.24-12.69-3.49C152.27,92.87,159.94,92.54,165,96.36Z"/><path class="cls-3" d="M443.52,173.31c0,.15-.11.29-.17.44-6.67,16.62-27.74,14.58-44.59,6.42a62.43,62.43,0,0,1-15.61-10.52c-3.45-3.28-5.92-6.71-6.9-10,0,0-3.87-12.16,17.47-7,9.13,2.21,21.52,1.13,31.87,1.38C439.44,154.43,449.65,157.14,443.52,173.31Z"/><path class="cls-4" d="M376.25,159.7s-3.87-12.16,17.47-7c9.13,2.21,21.52,1.13,31.87,1.38-7.53,7.57-17,16.15-26.83,26.06a62.43,62.43,0,0,1-15.61-10.52C379.7,166.37,377.23,162.94,376.25,159.7Z"/><path class="cls-3" d="M485,280c-3.58,1.48-8.3,2.05-13.75,2.12-2.57,0-5.3,0-8.15-.18h0l-4.25-.19c-30.14-1.32-252.11-9.37-254.62,3.44-1.31,6.64,8.39,19.17-64.24,14.69C92.42,297,59.56,283.68,41,269.87l-.49-.37C21.44,254.87,30,235.85,30,235.85s52.69-4.44,110.36-5.59l1.41,0h.11l2.72-.05c42.8-.72,92-1,137.79-.76h6l4.3,0,4.06,0,6.05.05,2.85,0,3,0h.2l5.64.06,2.21,0,3.27,0c3.44,0,6.85.07,10.21.12l8.24.11,1.11,0,3.66.05,5.42.09c.6,0,1.19,0,1.79,0l7,.13,2.11,0,7.29.15,2.38.06h.23l4.61.11,4.71.13,1.54,0h.37l2.63.08,2.58.07.63,0,3.76.12,3.45.12,2,.07c4.13.15,8,.31,11.64.48l1.72.08,1.68.09c10.46.52,18.35,1.13,23,1.82C478.07,240.4,507,271,485,280Z"/><path class="cls-5" d="M410.66,232c-23.49,8.84-66.28,17.19-109.88,21.22-35.79,3.32-72.13,3.72-98.78-.87-1.66-.29-3.33-.54-5-.77h0C145,244.59,78.5,265.45,41,269.87l-.49-.37C21.44,254.87,30,235.85,30,235.85s52.69-4.44,110.36-5.59l1.41,0h.11l2.72-.05c42.8-.72,92-1,137.79-.76h6l4.3,0,4.06,0,6.05.05,2.85,0,3,0h.2l5.64.06,2.21,0,3.27,0c3.44,0,6.85.07,10.21.12l8.24.11,1.11,0,3.66.05,5.42.09c.6,0,1.19,0,1.79,0l7,.13,2.11,0c2.47,0,4.9.1,7.29.15l2.38.06h.23l4.61.11,4.71.13,1.54,0h.37l2.63.08,2.58.07.63,0,3.76.12,3.45.12,2,.07c4.13.15,8,.31,11.64.48l1.72.08Z"/><path class="cls-4" d="M297.47,269.87c-20.54.28-59.79-5.29-100.49-18.34h0a349.88,349.88,0,0,1-52.38-21.34c42.8-.72,92-1,137.79-.76,7.79,9.16,14.31,17.25,18.41,23.74C307.27,263.46,307.69,269.73,297.47,269.87Z"/><path class="cls-4" d="M485,280c-3.59,1.48-8.3,2.05-13.76,2.12-2.56,0-5.29,0-8.14-.18h0l-4.26-.2a209.92,209.92,0,0,1-62.71-50.44c5.28.19,10.15.4,14.57.62,10.46.53,18.36,1.14,23,1.83C478.06,240.4,507,270.94,485,280Z"/><path class="cls-3" d="M421.2,218.19H26.59a179.78,179.78,0,0,1-8-74.79c6.3-60.87,43.15-112.23,96.16-110.06,29.15,1.2,46.25,14.88,62.65,32.49,25.33,27.23,49,63.89,112.89,78.44C395.5,168.22,421.2,218.19,421.2,218.19Z"/><path class="cls-6" d="M177.38,65.83C148.54,86.4,105.9,115.65,66.5,131.72c-17,6.95-33.47,11.43-47.93,11.68,6.3-60.87,43.15-112.23,96.16-110.06C143.88,34.54,161,48.22,177.38,65.83Z"/><path class="cls-2" d="M182.82,112.36s-10.19-4-18.91-3.77C163.91,108.59,170.49,111.85,182.82,112.36Z"/><path class="cls-2" d="M176.87,105.18s-9.67-3-16.87.77c0,0,6.67,1.3,16.87-.77"/><path class="cls-2" d="M171.51,100.1s-8.92,3.19-13.1,1.32C158.41,101.42,165.45,98.35,171.51,100.1Z"/><path class="cls-2" d="M176.34,105.25s-1.23-9.39,1.49-13.08C177.83,92.17,179.34,99.7,176.34,105.25Z"/><path class="cls-2" d="M183.45,113s-1.46-11.14,1.76-15.51C185.21,97.46,187,106.39,183.45,113Z"/><rect class="cls-7" x="105.96" y="100.46" width="217.22" height="112.51" rx="44.48"/><rect class="cls-7" x="93.13" y="185.36" width="245.21" height="54.53"/><path class="cls-7" d="M129.64,239.89l-6.2-85.76a18.26,18.26,0,0,0-36.51,0,17.56,17.56,0,0,0,.17,2.42l6,83.34Z"/><path class="cls-7" d="M129.64,239.89l-.48-5.36-.45-5.35-.45-5.36-.43-5.35L127,207.75,126.16,197l-.8-10.72L125,181l-.38-5.36-.74-10.72-.38-5.36-.35-5.36h0v0l0-.88,0-.88c0-.29-.07-.58-.1-.87s-.1-.58-.15-.87-.12-.58-.18-.86-.15-.57-.23-.86-.18-.56-.27-.84-.21-.55-.31-.82-.24-.54-.35-.81-.26-.53-.39-.8l-.43-.77c-.15-.25-.32-.5-.47-.75s-.34-.48-.51-.73l-.53-.7-.58-.67-.6-.65-.64-.62-.66-.59-.69-.55c-.24-.18-.48-.36-.72-.52l-.75-.49c-.25-.15-.5-.31-.76-.45s-.52-.28-.79-.41-.54-.26-.81-.37-.55-.23-.83-.33-.56-.21-.84-.29-.57-.18-.86-.25-.57-.15-.87-.21l-.87-.17c-.3,0-.59-.09-.89-.12l-.89-.08-.89,0h.89l.9.05c.3,0,.59.06.89.09l.89.14.88.18.87.23c.29.08.57.18.86.27l.84.32c.28.1.56.23.83.35s.54.26.81.4.53.29.79.43.52.32.77.48l.75.51.72.54.69.59.67.61.63.65.59.68.57.71c.17.25.36.49.53.74s.33.51.49.76.31.52.45.79.29.53.42.81.26.55.37.83.24.56.34.84.2.57.29.86.17.58.25.88.14.59.2.88.12.6.17.9.08.6.11.9l.08.91,0,.91v0l.42,5.36.4,5.35.8,10.72.4,5.36.39,5.36.74,10.72.75,10.72.69,10.73.34,5.36.33,5.37.32,5.36Z"/><path class="cls-7" d="M301.83,239.89l6.2-85.76a18.26,18.26,0,0,1,36.51,0,17.56,17.56,0,0,1-.17,2.42l-6,83.34Z"/><path class="cls-7" d="M301.83,239.89l.31-5.37.31-5.36.33-5.37.34-5.36.69-10.73.75-10.72.74-10.72.39-5.36.4-5.36.8-10.72.4-5.35.42-5.36v0l0-.91.08-.91c0-.3.08-.6.12-.9s.1-.6.16-.9.14-.59.2-.88.17-.59.25-.88.2-.57.29-.86l.34-.84c.11-.28.25-.56.37-.83s.28-.54.42-.81.3-.52.45-.79.33-.5.49-.76.36-.49.53-.74l.57-.71.59-.68.64-.65.66-.61.69-.59.72-.54.75-.51c.25-.16.51-.33.77-.48s.52-.3.79-.43.53-.28.81-.4.55-.25.83-.35l.84-.32c.29-.09.57-.19.86-.27l.87-.23.88-.18.89-.14.89-.09.9-.05h.9l-.9,0-.89.08c-.3,0-.59.08-.89.12l-.87.17c-.3.06-.58.14-.87.21s-.57.16-.86.25-.56.19-.84.29-.55.22-.83.33-.54.25-.81.37l-.79.41c-.26.14-.51.3-.76.45l-.75.49c-.24.16-.48.34-.72.52l-.69.55-.66.59-.64.62-.6.65-.57.67-.54.7-.51.73c-.15.25-.32.5-.47.75s-.29.51-.42.77-.27.53-.4.8-.24.53-.35.81-.22.54-.31.82-.19.56-.27.84-.16.57-.23.86-.13.57-.18.86-.11.58-.15.87-.07.58-.1.87l-.05.88,0,.88v0h0l-.35,5.36-.38,5.36-.74,10.72L306.5,181l-.39,5.36-.8,10.72-.81,10.71-.86,10.72-.43,5.35-.45,5.36-.45,5.35Z"/><rect class="cls-7" x="93.13" y="239.89" width="245.21" height="2.24"/><path class="cls-7" d="M109.54,252.55h0a1.72,1.72,0,0,1-1.19-2.12l2.6-9.29a1.73,1.73,0,0,1,2.13-1.19h0a1.72,1.72,0,0,1,1.19,2.12l-2.61,9.29A1.72,1.72,0,0,1,109.54,252.55Z"/><path class="cls-7" d="M320.32,252.55h0a1.72,1.72,0,0,0,1.19-2.12l-2.6-9.29a1.72,1.72,0,0,0-2.12-1.19h0a1.73,1.73,0,0,0-1.2,2.12l2.61,9.29A1.72,1.72,0,0,0,320.32,252.55Z"/><path class="cls-7" d="M104.34,157a4.38,4.38,0,1,1,4.38-4.38A4.39,4.39,0,0,1,104.34,157Zm0-7.9a3.52,3.52,0,1,0,3.51,3.52A3.53,3.53,0,0,0,104.34,149.1Z"/><path class="cls-7" d="M327.13,157a4.38,4.38,0,1,1,4.38-4.38A4.39,4.39,0,0,1,327.13,157Zm0-7.9a3.52,3.52,0,1,0,3.52,3.52A3.52,3.52,0,0,0,327.13,149.1Z"/><path class="cls-7" d="M128,185.36l7.56-.08,8.67-.08,11.26-.08,13.31-.06,14.85-.06,32.29-.06,32.29.06,14.86.05,13.31.07,11.25.08,8.68.08,7.55.08-7.55.08-8.68.07-11.25.08-13.31.07-14.86.06-32.29.05-32.29-.05-14.85-.06-13.31-.07-11.26-.08-8.67-.07Z"/><path class="cls-8" d="M218.59,101.88c6.63.86,10.92.27,17.71,7s11.07,16.81,39.82,1.8c22.47-11.74,31.47,15.9,31.74,27.67s-3.08,37.11-6.23,39.32-63-5.41-88.57-4.38-78.16,16.55-86.73-6.94S191.49,98.34,218.59,101.88Z"/><path class="cls-9" d="M230.31,113.72a15.83,15.83,0,0,0-5.89,3.27l-3.09-3.55,6.5-2.3Z"/><path class="cls-10" d="M197.06,91.43s23,5.52,31.32,19.71l-.33.18-1.49.86a24.73,24.73,0,0,0-4.35,3c-1.29,1.38-32.15-10.94-31.13-15.74S197.06,91.43,197.06,91.43Z"/><path class="cls-11" d="M203.68,255.42l-1.5,5.66s3,3.59,0,4-10.69-8.29-10.69-8.29l.64-4.18.93-6.05,12.43,2.08Z"/><path class="cls-12" d="M193.06,246.57l12.43,2.08-1.81,6.77c-3.77-1.11-8.44-2.15-11.55-2.8Z"/><path class="cls-13" d="M208.12,249.23c-1.19,3.54-1.94,5.68-1.94,5.68A79.45,79.45,0,0,0,190.71,251l5.89-46.11s8.29-1.41-12.89-15.78-30-25.24-18.42-32.79c5.14-3.35,15.24-.29,25.55,4.87,12.95,6.49,26.24,16.3,30.45,20.92C227.46,188.93,213.43,233.29,208.12,249.23Z"/><path class="cls-14" d="M206.31,255.19l-.2-.08a79.39,79.39,0,0,0-15.43-3.85l-.21,0,5.94-46.48.16,0A1.77,1.77,0,0,0,198,203.5c.31-1.45-1.15-5.21-14.36-14.17-16.2-11-23.72-19-23.66-25.3,0-3,1.79-5.61,5.24-7.85a10.41,10.41,0,0,1,5.72-1.44c4.89,0,11.82,2.18,20.05,6.3,12.37,6.19,26,16,30.51,21,6.16,6.77-7.13,49.31-13.13,67.29-1.17,3.51-1.93,5.67-1.93,5.69ZM191,250.86a80.52,80.52,0,0,1,15.1,3.77c.22-.62.9-2.59,1.86-5.47,4.66-14,19.39-60.09,13.22-66.87-4.48-4.91-18.06-14.69-30.39-20.87-8.16-4.08-15-6.24-19.85-6.24a9.89,9.89,0,0,0-5.48,1.36c-3.37,2.19-5,4.64-5,7.5-.06,6.11,7.4,14,23.47,24.93,10.1,6.85,15.13,11.91,14.54,14.62a2.13,2.13,0,0,1-1.57,1.52Z"/><path class="cls-15" d="M208.12,249.23c-1.19,3.54-1.94,5.68-1.94,5.68A79.45,79.45,0,0,0,190.71,251l5.89-46.11s8.29-1.41-12.89-15.78-30-25.24-18.42-32.79c5.14-3.35,15.24-.29,25.55,4.87,4.25,6.13,9,16.91,18.88,22.21C221.81,190,196,226.09,208.12,249.23Z"/><path class="cls-16" d="M271.67,244c-.69,4.42-9.81,11-9.81,11l-10-6-4.93-3,4.14-13.4,8.45,6.7,4.26,3.39S272.36,239.53,271.67,244Z"/><path class="cls-17" d="M259.53,239.18a37.1,37.1,0,0,1-7.66,9.69l-4.93-3,4.14-13.4Z"/><path class="cls-18" d="M257.76,236.86s0,.09-.05.14c-1.73,4.78-7.87,11.65-7.87,11.65C225,238.33,203.79,214.2,194.58,209s-61-31.87-61-31.87,8.3-14.93,25.13-14.92c5.6,0,12.13,1.67,19.63,6.08C208.39,186,257.76,236.86,257.76,236.86Z"/><path class="cls-19" d="M249.9,248.9l-.14-.06C233.17,242,218.27,229,207.38,219.52c-5.5-4.79-9.85-8.58-12.91-10.29-9.1-5.1-60.45-31.6-61-31.86l-.2-.11.11-.19c.08-.15,8.55-15,25.29-15,6.25,0,12.89,2.06,19.77,6.11,29.7,17.49,78.94,68,79.44,68.55l.09.1-.09.27c-1.73,4.77-7.67,11.44-7.92,11.72Zm-116-71.81c3.55,1.83,52,26.83,60.77,31.76,3.1,1.74,7.46,5.54,13,10.34,10.83,9.43,25.65,22.33,42.11,29.2.8-.92,6.15-7.11,7.73-11.46v0c-2.43-2.49-50.21-51.29-79.25-68.39-6.81-4-13.38-6-19.52-6.05C143.25,162.47,135,175.35,133.91,177.09Z"/><path class="cls-20" d="M257.71,237c-1.73,4.78-7.87,11.65-7.87,11.65C225,238.33,203.79,214.2,194.58,209s-61-31.87-61-31.87,8.3-14.93,25.13-14.92l.24.21c5.06,4.41-7.89,14.53,3.17,20.42s29.89,6.64,37,13.45,23.37,29.11,40.55,33C249.91,231.61,255,234.66,257.71,237Z"/><path class="cls-21" d="M191.49,253.2s-4.1,5.81-2.3,8.85,13.4,8.42,15.61,10.08,11.61,7.88,13.4,5.11-3-9.5-5.8-12.14-9.08-8.29-9.08-8.29-3.95,1.92-2,4.82S199.27,264.53,191.49,253.2Z"/><path class="cls-21" d="M257.76,253.2s5.76,7.19,10.31,3.32,6-9.67,11.7-16.44,4-9.67,0-8.43-17,10.1-16,10.92c0,0,1.87,2.93,4.42,1.12S268.35,248.65,257.76,253.2Z"/><path class="cls-10" d="M184.26,93.18l-1.66,22.35h0l-3.13,42.12a76.5,76.5,0,0,1-14.86-.06c-5.58-.69-10.72-2.41-11.29-6.39-.85-5.91-1.06,9.17-5.86,19.78-2.53,5.6-6.34,10-12.2,9.33,0,0-18.6-16.77-18-30.4.33-8-.59-19.51-1.41-27.59-.56-5.64-1.07-9.64-1.07-9.64s10.22-19.5,30.48-19.5Z"/><path class="cls-22" d="M182.6,115.53h0l-3.13,42.12a76.5,76.5,0,0,1-14.86-.06c-2.22-6.27,3.42-21.75,1.1-31.39-2.48-10.37,7.8-28.2,7.8-28.2S178,105.8,182.6,115.53Z"/><path class="cls-23" d="M152.74,160.45c-2.53,5.61-8.82,22.06-17.48,19.86,0,0-18.6-16.77-18-30.4.33-8-.59-19.51-1.4-27.59,7.66-5.93,19.82-2.92,19.82-2.92s-5.8,19.76,1.11,28.6C139.22,151.17,148,160.18,152.74,160.45Z"/><path class="cls-24" d="M155.69,131.21h0c0-.05,0-.1,0-.15a.82.82,0,0,0,.72-.81.81.81,0,0,0-1.56-.32.49.49,0,0,0-.74.41.48.48,0,1,0,0,.95h0v.06a.82.82,0,0,0,.82.81.81.81,0,0,0,.46-.14.48.48,0,0,0,.83-.33A.48.48,0,0,0,155.69,131.21Z"/><path class="cls-25" d="M155.69,132.38a.79.79,0,0,1-.37-.1,1.13,1.13,0,0,1-.44.1,1,1,0,0,1-1-.9.7.7,0,0,1-.48-.67.69.69,0,0,1,.5-.66.71.71,0,0,1,.83-.49,1,1,0,0,1,.85-.44,1,1,0,0,1,.54,1.9.7.7,0,0,1,.29.57A.69.69,0,0,1,155.69,132.38Zm-.32-.65.13.14a.27.27,0,0,0,.19.08.26.26,0,0,0,.26-.26.26.26,0,0,0-.26-.26h-.18l0-.18a.2.2,0,0,0,0-.11l-.1-.27.28,0a.58.58,0,0,0,.53-.59.59.59,0,0,0-.59-.6.6.6,0,0,0-.55.37l-.1.23-.22-.14a.27.27,0,0,0-.4.23v.21h-.22a.26.26,0,0,0-.26.26.26.26,0,0,0,.25.26h.25l0,.28a.6.6,0,0,0,.94.49Z"/><path class="cls-26" d="M156.53,132.71a1.21,1.21,0,0,0-.59.16,1.78,1.78,0,0,0-1.47-.78,1.72,1.72,0,0,0-.72.15,1.18,1.18,0,0,0-1.08-.7,1.17,1.17,0,0,0-1.17,1.17,1.16,1.16,0,0,0,.57,1,1.14,1.14,0,0,0-.12.52,1.17,1.17,0,0,0,1.17,1.17,1.13,1.13,0,0,0,.32-.05,1.79,1.79,0,0,0,2.5-.46,1.11,1.11,0,0,0,.59.16,1.17,1.17,0,1,0,0-2.34Z"/><path class="cls-27" d="M154.47,135.89a2,2,0,0,1-1.07-.3,1.33,1.33,0,0,1-.28,0,1.39,1.39,0,0,1-1.39-1.39,1.62,1.62,0,0,1,.07-.44,1.39,1.39,0,1,1,2-1.82,2,2,0,0,1,2.16.63,1.34,1.34,0,0,1,.52-.1,1.39,1.39,0,1,1,0,2.77,1.55,1.55,0,0,1-.52-.1A2,2,0,0,1,154.47,135.89Zm-1-.77.09.06a1.58,1.58,0,0,0,2.2-.41l.11-.16.17.1a1,1,0,0,0,.48.13,1,1,0,1,0,0-1.91.94.94,0,0,0-.48.13l-.17.1-.11-.17a1.61,1.61,0,0,0-1.94-.55l-.19.09-.09-.2a1,1,0,1,0-1.37,1.2l.17.1-.09.18a1,1,0,0,0-.1.42,1,1,0,0,0,1,1,1.09,1.09,0,0,0,.26,0Z"/><path class="cls-28" d="M151,133a1.16,1.16,0,0,0-.59.16,1.78,1.78,0,0,0-1.48-.78,1.75,1.75,0,0,0-.72.15,1.17,1.17,0,1,0-1.68,1.47,1.28,1.28,0,0,0-.12.52,1.18,1.18,0,0,0,1.17,1.17,1.14,1.14,0,0,0,.33-.05,1.79,1.79,0,0,0,2.5-.46A1.17,1.17,0,1,0,151,133Z"/><path class="cls-29" d="M148.88,136.18a2,2,0,0,1-1.06-.31,1.39,1.39,0,0,1-1.67-1.35,1.31,1.31,0,0,1,.07-.44,1.36,1.36,0,0,1-.52-1.08,1.39,1.39,0,0,1,2.56-.74,2,2,0,0,1,2.16.63,1.39,1.39,0,1,1,0,2.56A2,2,0,0,1,148.88,136.18Zm-1-.77.08.05a1.56,1.56,0,0,0,.9.29,1.57,1.57,0,0,0,1.3-.69l.11-.17.18.11a1,1,0,0,0,.48.13,1,1,0,0,0,0-1.91.89.89,0,0,0-.48.13l-.18.1-.11-.17a1.6,1.6,0,0,0-1.93-.55l-.2.08-.09-.19a1,1,0,0,0-.87-.58,1,1,0,0,0-.49,1.78l.16.1-.08.18a.87.87,0,0,0-.1.42,1,1,0,0,0,1.22.91Z"/><path class="cls-30" d="M142.92,135a.65.65,0,0,0,.22-.25,1,1,0,0,0,.91-.09,1.07,1.07,0,0,0,.28-.28.64.64,0,0,0,.88-.89.62.62,0,0,0-.56-.29.6.6,0,0,0-.1-.27.64.64,0,0,0-.88-.18.87.87,0,0,0-.14.12,1,1,0,0,0-.56.16,1,1,0,0,0-.44.8.71.71,0,0,0-.31.1.64.64,0,0,0,.7,1.07Z"/><path class="cls-31" d="M142.57,135.34h0a.84.84,0,0,1-.71-.38.86.86,0,0,1-.13-.64.88.88,0,0,1,.37-.55.94.94,0,0,1,.23-.1,1.19,1.19,0,0,1,.52-.8,1.15,1.15,0,0,1,.59-.19.48.48,0,0,1,.11-.09.87.87,0,0,1,1.18.24.82.82,0,0,1,.09.19.9.9,0,0,1,.57.37.85.85,0,0,1-.24,1.18.89.89,0,0,1-.76.1,1.37,1.37,0,0,1-.22.19,1.25,1.25,0,0,1-.94.17,1,1,0,0,1-.19.17A.86.86,0,0,1,142.57,135.34Zm1-2.23a.78.78,0,0,0-.44.12.75.75,0,0,0-.34.62v.2l-.2,0a.37.37,0,0,0-.21.06.41.41,0,0,0-.18.27.4.4,0,0,0,.06.32.42.42,0,0,0,.35.19h0a.39.39,0,0,0,.23-.07.41.41,0,0,0,.15-.17l.09-.18.18.08a.78.78,0,0,0,.71-.07.77.77,0,0,0,.22-.22l.12-.18.18.11a.43.43,0,0,0,.46,0,.42.42,0,0,0-.23-.77h-.19l-.05-.19a.36.36,0,0,0-.07-.18.44.44,0,0,0-.59-.12l-.08.08-.07.08Z"/><path class="cls-32" d="M148.79,131.93a.64.64,0,0,0,.22-.25,1,1,0,0,0,.91-.09,1,1,0,0,0,.28-.29.64.64,0,0,0,.88-.89.64.64,0,0,0-.56-.28.52.52,0,0,0-.1-.27.62.62,0,0,0-.88-.18.53.53,0,0,0-.14.12.91.91,0,0,0-.56.16,1,1,0,0,0-.43.8.63.63,0,0,0-.32.1.65.65,0,0,0-.18.89A.64.64,0,0,0,148.79,131.93Z"/><path class="cls-33" d="M148.44,132.25h0a.85.85,0,0,1-.71-.39.8.8,0,0,1-.12-.64.84.84,0,0,1,.36-.54.88.88,0,0,1,.24-.11,1.18,1.18,0,0,1,.51-.79,1.16,1.16,0,0,1,.59-.2l.11-.08a.87.87,0,0,1,1.18.24,1.14,1.14,0,0,1,.1.19.83.83,0,0,1,.56.36.85.85,0,0,1-1,1.28,1.43,1.43,0,0,1-.23.2,1.2,1.2,0,0,1-.94.16.66.66,0,0,1-.19.18A.86.86,0,0,1,148.44,132.25Zm1-2.24a.81.81,0,0,0-.44.13.77.77,0,0,0-.34.62v.2h-.2a.48.48,0,0,0-.21.07.42.42,0,0,0-.18.27.45.45,0,0,0,.06.32.45.45,0,0,0,.35.19h0a.42.42,0,0,0,.23-.07.4.4,0,0,0,.15-.17l.09-.18.18.08a.75.75,0,0,0,.93-.3l.12-.18.18.12a.43.43,0,0,0,.46,0,.43.43,0,0,0,.12-.59.42.42,0,0,0-.35-.19h-.19l-.05-.18a.36.36,0,0,0-.07-.18.42.42,0,0,0-.58-.12.24.24,0,0,0-.09.08l-.07.07Z"/><path class="cls-34" d="M160.44,130.9v-.09a1.46,1.46,0,0,0-2.92-.09h0a1,1,0,1,0,.85,1.42l.12,0a.28.28,0,0,0,0,.09,1.46,1.46,0,1,0,2-1.37Z"/><path class="cls-35" d="M159.94,134a1.68,1.68,0,0,1-1.65-1.38,1.18,1.18,0,1,1-1-2,1.68,1.68,0,0,1,3.33.23,1.68,1.68,0,0,1-.72,3.2Zm-1.67-2.1.19.09.1,0,.15.06v.23a1.25,1.25,0,1,0,1.67-1.17l-.16-.06,0-.23a1.25,1.25,0,0,0-2.49-.08v.2h-.21a.75.75,0,0,0,0,1.5.75.75,0,0,0,.66-.4Z"/><polygon class="cls-36" points="165.25 158.84 146.25 161.29 141.25 135.53 163.54 132.66 165.25 158.84"/><path class="cls-11" d="M158.66,158.64a42.71,42.71,0,0,1,4.21-4.15c2.76-2.41,3.94-4.28,4.28-4.07s.49,2.21-1.93,5.39c0,0,2.53-2.37,3.45-1.94,1.47.69,1.25,3.87.69,5.53a2.25,2.25,0,0,1,.27,2.49c-.75,1.31-9.75,5-14.06,4.35S158.66,158.64,158.66,158.64Z"/><polygon class="cls-9" points="159.81 157.56 158.34 162.29 156.68 167.6 152.14 167.95 151.34 168.01 155.43 156.91 159.81 157.56"/><polygon class="cls-37" points="158.34 162.29 156.68 167.6 152.14 167.95 154.16 162.63 158.34 162.29"/><path class="cls-10" d="M156.08,156.73l-1.92,6.46-1.58,5.33s-48.45,4.42-48.45-17.5c0-16.18,3.62-27.6,8.77-35.69a42.29,42.29,0,0,1,6-7.41c4.43-4.39,13.82-3.51,15.84,6.07s-9.39,31.68-9.39,31.68Z"/><path class="cls-9" d="M144.6,87a33.9,33.9,0,0,1,18.85,2.1s-9.76,5.63-11.33,4.56S144.6,87,144.6,87Z"/><path class="cls-38" d="M146.71,78.65s-.28,9.32-1.38,11,11,4.22,14.36,1.87S162,83.28,162,83.28Z"/><path class="cls-10" d="M143.37,88.48c1.71-3.11,2.21-.83,7,1.2s10.87,0,13.08-.55,2,6.13,1.18,7.86c-.92,1.94-8.92,7.15-16.84,3.37C139.51,96.42,140.88,93,143.37,88.48Z"/><path class="cls-11" d="M146.68,79.55s6.37,12,16.21,7.4c8.2-3.81,3.41-30.43-8.56-29.23S132.13,84.34,146.68,79.55Z"/><path class="cls-39" d="M147.21,61.2s11.24,3.63,19.77-3-1.69-17.2-9.36-13.05S148.17,51.23,143,53.2c-8.43,3.21-11.75,16.33-9.47,22.34s9.77,11,12.83,9l.34-5s-1.7.69-4.19-.9-1.58-3.87,0-4c1-.08,2.35,1.25,2.77.21s-2-2-2-3.94S148.53,65.71,147.21,61.2Z"/><path class="cls-21" d="M179.05,69.35s-8.23,5.71-7.61,18,2.48,8.51-.28,18-4.42,14.64,0,18.5,23.69-8.59,23.69-8.59S186.67,71.23,179.05,69.35Z"/><path class="cls-11" d="M213.85,179.74a15.22,15.22,0,0,1,3.25,4.56c1.1,2.59,1.72,6.7,2,7.18s1.14.28,1-1.51-.45-5.08-.45-5.5,1.18,1.07,1.49,4.36.34,4.52,1.24,4.17a.91.91,0,0,0,.29-.69s.16.45.64-.07.5-8.92-.37-10.23c0,0,.42,1.49,1,1.08.39-.27-1.41-6.63-6.52-7.18S213.85,179.74,213.85,179.74Z"/><path class="cls-40" d="M254.17,100.53s-.83,25.71-16,35.11c-7.08,4.37-15.76,2.75-23.06-.41-8.37-3.64-14.92-9.29-15.16-10.28-.1-.38-.24-1.57-.4-3.23s-.39-4.15-.59-6.6c-.52-6.29-1-13.24-1-13.24s7.83-4.73,15.48,3.51,13.9,12.29,17.49,15.42.93-7.5,15.75-20.28a8.7,8.7,0,0,0,4.66.67h0A12.2,12.2,0,0,0,254.17,100.53Z"/><path class="cls-41" d="M254.17,100.53s-.83,25.71-16,35.11c-7.08,4.37-15.76,2.75-23.06-.41a40.67,40.67,0,0,1-15.56-13.51c-2.23-3.52-2.63-6.26-.59-6.6s6.77,1.86,14.7,8.36c32.84,27,37.6-21.81,37.64-22.28h0A12.2,12.2,0,0,0,254.17,100.53Z"/><path class="cls-42" d="M279.77,113.64s6.68-3.76,11.24,1.66,32.43,51.26-8.86,76C282.15,191.3,270.33,116.23,279.77,113.64Z"/><path class="cls-43" d="M345.58,103.36s-11.19,4-19.9,10.7-25.83,5.69-27.76,8.45c-.87,1.24-4.35,5.64-7.94,10.13l-2.57,3.22-4.79,6-1.7,2.11s-6.41-21.63-1.15-26.94c0,0,.6-.75,1.63-1.84,2.29-2.44,6.69-6.61,11.27-8.18,6.63-2.28,50.56-12.09,50.56-12.09Z"/><path class="cls-44" d="M358.16,129.25S344.7,134.57,335.7,138s-24.16,1.86-29.11,4.26a70,70,0,0,0-8.78,5.76c-4.44,3.25-8.55,6.54-8.55,6.54l-6.64-12.72-2.48-4.74s2.64-1.25,6.24-2.86l3.6-1.58a116.14,116.14,0,0,1,12.55-4.75c7.38-2,53.81-6.33,53.81-6.33Z"/><path class="cls-45" d="M297.81,148c-4.44,3.25-8.55,6.54-8.55,6.54l-6.64-12.72-1.7,2.11s-6.41-21.63-1.15-26.94c0,0,.6-.75,1.63-1.84-2.14,8.79,3.58,19.7,3.58,19.7l1.4-.63A51.18,51.18,0,0,0,297.81,148Z"/><path class="cls-10" d="M379.8,124s-4.63,2.22-7.68,2.39c-2.11.11-8.29,1.56-11.9,2.45l-1.39.34-1.31.34-1.86-7.88s.49-.09,1.3-.27l1.39-.33a40.93,40.93,0,0,0,7.72-2.65c4.23-2.1,2.07-10.2.74-14a6.36,6.36,0,0,1,1.3-6.39Z"/><polygon class="cls-9" points="381.6 123.28 379.8 123.99 368.1 98.1 369.93 97.28 381.6 123.28"/><path class="cls-9" d="M292.94,180.76c-4.05,6.86-10.5,14.88-29.29,12.3s-52.49-28.69-52.49-28.69,5.93-16.86,11-24.51c1.41-2.12,2.75-3.54,3.88-3.67,0,0,8.06-.82,15.24-2.21s33.44-18.79,40.9-21.35c0,0-6.64,7.4,0,22.32,3.13,7,7.86,14,11,21.1C296.61,164,298.05,172.11,292.94,180.76Z"/><path class="cls-46" d="M292.94,180.76c-4.05,6.86-10.5,14.88-29.29,12.3s-52.49-28.69-52.49-28.69,5.93-16.86,11-24.51c1.21.11,6.22-4.66,6.22-4.66s-4.62,18.5,5.17,29.18c14.64,16,66.59,31.21,59.6-8.33C296.61,164,298.05,172.11,292.94,180.76Z"/><path class="cls-47" d="M225.25,139.92a13.77,13.77,0,0,0-2.47,4h0c-3.39,7.21-7.52,21.16-7.19,24.08.26,2.32-8.87-2-16.7-7.55-4.7-3.31-8.93-7.06-10.38-10.06a32.11,32.11,0,0,1-1.81-5.3c-3.36-12.59-6.37-38.34-2.43-43.22,4.65-5.75,15.08-.65,15.08-.65s14.16,11.47,17.76,18.93,6.9,11.47,9.67,12.71a2.37,2.37,0,0,1,1.6,2C228.46,136.32,227.3,138.12,225.25,139.92Z"/><path class="cls-48" d="M215.58,168c.26,2.32-8.87-2-16.7-7.55-4.7-3.31-8.93-7.06-10.38-10.06a32.11,32.11,0,0,1-1.81-5.3c.86-5.44-1.13-17.11-1.13-17.11s19.63,43.81,37.21,15.94C219.38,151.14,215.25,165.09,215.58,168Z"/><path class="cls-49" d="M217.1,173.9c0,2.85-2.74,4.49-4,5.11-.4.19-.66.28-.66.28-11.33-8-32.05-8.15-39.93-35.5-4-14-2.31-23.79,1-30.45A26.76,26.76,0,0,1,184.9,101.2s-2,10.64.15,19.1,8.28,25.56,12,32.74S217.1,170.17,217.1,173.9Z"/><path class="cls-11" d="M234.5,127.76c-.41.24-.52-.47-.55-1,0,1,0,2.84-.46,2.8s-1.06-2.3-1.06-2.3c0,1-.37,3.54-.87,3.54s-.65-1.33-1.06-3.91-2.21-6.4-2.44-6.22.23,5.57-.33,6-1.56-2.72-1.91-4.61c-.23-1.28-.54-4-.71-5.68a16.43,16.43,0,0,1,4.83-2.53C235,117.8,235.11,127.41,234.5,127.76Z"/><path class="cls-11" d="M253.08,98.68a37.57,37.57,0,0,1-.52-6.35c.06-1.23-1.09-2.77-1.51-4.18-.56-1.87-1-2.57-1.43-2.54s-.11,2.43.19,3.74-.92,1.68-3.16-.07A12.3,12.3,0,0,1,243,84.66c-.52-1-1.22-1.77-1.16-.5,0,0-.54-1.72-1.24-1.4-.51.24.06,1.79.06,1.79s-.44-1-.88-.39.53,3,2,5,5,5.65,5.53,7a9.06,9.06,0,0,1,.53,2.91Z"/><path class="cls-50" d="M247.9,98.06c1.48.17,3-.29,5.69-.09,1.57.11,1.48,2.67-.23,3.06s-5.88.9-7-.83S246.72,97.93,247.9,98.06Z"/><path class="cls-51" d="M185.87,93.18l-1,8A20.43,20.43,0,0,0,197,107a9.47,9.47,0,0,0,2.34-5.74l-.62-7.18S187.12,88.78,185.87,93.18Z"/><path class="cls-11" d="M181.64,85.81a2.08,2.08,0,0,0-2,3c.92,3,4.65,2.31,4.65,2.31s5.05,9.15,14.09,6.35C207,94.8,200.79,68.13,189.24,71,179.11,73.43,179.89,82.59,181.64,85.81Z"/><path class="cls-21" d="M185.92,74.76s.92,9.21-8.1,9-2.4-15.19,6.44-17.22,16.67.22,16.67,4.18C200.93,74.24,196.14,80.38,185.92,74.76Z"/><path class="cls-21" d="M164.63,111.72l1.76.91S170.61,104.07,171,98c.21-3.66.14-8.11.54-9.69.6-2.4,4.85-10.48,4.85-10.48l-2-3.07s-4.28,10.09-4.3,20.18C170.05,102.81,164.63,111.72,164.63,111.72Z"/><circle class="cls-21" cx="177.51" cy="67.65" r="5.19"/><path class="cls-10" d="M360.29,98l-13.05,4.78-1.36.5-1.3.48-2-8.71c.44-.13.86-.27,1.27-.41s.91-.36,1.33-.56c8-3.73,8.1-12,9.42-16.73,1.45-5.18,4.15-5.87,4.15-5.87Z"/><polygon class="cls-9" points="362.11 97.83 360.29 97.99 358.71 71.47 360.57 71.47 362.11 97.83"/><path class="cls-52" d="M199.1,89.63a3.31,3.31,0,0,1-1.76,3.08c-1.43.58-3.07-.13-4-.7a7.34,7.34,0,0,1-.86-.58,60.47,60.47,0,0,0,6.62-3A6.46,6.46,0,0,1,199.1,89.63Z"/><path class="cls-21" d="M198.64,79.18a2.81,2.81,0,0,0-3.08,0c-1.45,1.09-1.09-1,.56-1.19A2.85,2.85,0,0,1,198.64,79.18Z"/><path class="cls-21" d="M185.57,84.47a2.78,2.78,0,0,1,2.34-2c1.81-.12.14-1.52-1.2-.54A2.83,2.83,0,0,0,185.57,84.47Z"/><path class="cls-53" d="M195,88.62a.21.21,0,0,1-.08-.41c.64-.26,1.58-1,1.55-1.45s-.53-.54-.95-.65c-1.75-.46-3-2.88-3-3a.22.22,0,1,1,.39-.19s1.2,2.34,2.76,2.76c.81.21,1.24.56,1.27,1,0,.84-1.23,1.64-1.82,1.88Z"/><path class="cls-21" d="M198.59,82.09h0A4.26,4.26,0,0,0,195.8,82a.11.11,0,0,1-.12,0,.11.11,0,0,1,0-.13A3.4,3.4,0,0,1,198,80.54a.11.11,0,0,1,.12.1.1.1,0,0,1-.1.11,3.4,3.4,0,0,0-2,1,4.32,4.32,0,0,1,2.56.16.1.1,0,0,1,.06.14A.09.09,0,0,1,198.59,82.09Z"/><path class="cls-21" d="M187.69,86.74h0a.1.1,0,0,1-.06-.14,4.45,4.45,0,0,1,1.69-1.94,3.32,3.32,0,0,0-2.08.73.11.11,0,0,1-.15,0,.1.1,0,0,1,0-.15,3.4,3.4,0,0,1,2.59-.75.12.12,0,0,1,.09.09.11.11,0,0,1-.06.12,4.28,4.28,0,0,0-1.89,2A.12.12,0,0,1,187.69,86.74Z"/><path class="cls-36" d="M199.1,89.63A12,12,0,0,1,193.3,92a7.34,7.34,0,0,1-.86-.58,60.47,60.47,0,0,0,6.62-3A6.46,6.46,0,0,1,199.1,89.63Z"/><path class="cls-54" d="M213.06,179c-.4.19-.66.28-.66.28-11.33-8-32.05-8.15-39.93-35.5-4-14-2.31-23.79,1-30.45-2.56,10.41-4,35.88,31.95,59.91A75.53,75.53,0,0,1,213.06,179Z"/><path class="cls-55" d="M217.53,173.4c1,1.1-.4,4.21-2.83,5.8s-4.47-.28-3.32-.76C213,177.77,216.56,172.29,217.53,173.4Z"/><path class="cls-56" d="M154.16,163.19l-1.58,5.33s-48.45,4.42-48.45-17.5c0-16.18,3.62-27.6,8.77-35.69-4.77,14-10.42,36.3.44,43C122.35,163.92,140.39,164.08,154.16,163.19Z"/><path class="cls-36" d="M360.22,128.83l-1.39.34L357,121.36l1.39-.33Z"/><path class="cls-36" d="M347.24,102.77l-1.36.5-2.07-8.64c.47-.18.91-.36,1.33-.56Z"/><path class="cls-9" d="M343.23,95.55h0l-.06,0c-1.36-.66-5.78-2.92-5.6-3.91.06-.36.54-.41.7-.43,2-.21,3.7,1.9,4.55,3.18-.43-1.81-1.12-5.46-.24-6.86a1.17,1.17,0,0,1,.8-.57.8.8,0,0,1,.79.24c1,1.1-.1,5.74-.58,7.54a13.19,13.19,0,0,0,2.72-6.8.15.15,0,0,1,.18-.14.16.16,0,0,1,.15.17,13.59,13.59,0,0,1-2.72,6.87,47.63,47.63,0,0,0,4.54-4.11.16.16,0,1,1,.23.23c-.17.17-4.21,4.27-5.41,4.6h0Zm-4.69-4-.24,0c-.3,0-.42.1-.43.16-.08.48,2.42,2,4.95,3.32C342.18,94,340.47,91.5,338.54,91.5Zm5-4.26-.14,0a.85.85,0,0,0-.59.42c-.88,1.41,0,5.55.4,7.08.58-2.17,1.51-6.45.68-7.36A.43.43,0,0,0,343.57,87.24Z"/><path class="cls-9" d="M357.05,121.73h0l-.06,0c-1.36-.67-5.78-2.92-5.61-3.91.07-.36.55-.41.71-.43,2-.21,3.69,1.9,4.55,3.18-.43-1.82-1.12-5.46-.24-6.86a1.19,1.19,0,0,1,.8-.58.83.83,0,0,1,.79.25c1,1.1-.1,5.74-.58,7.54a13.32,13.32,0,0,0,2.72-6.8.16.16,0,0,1,.18-.15.17.17,0,0,1,.15.18,13.63,13.63,0,0,1-2.72,6.87,47.63,47.63,0,0,0,4.54-4.11.16.16,0,0,1,.23,0,.17.17,0,0,1,0,.23c-.17.18-4.22,4.28-5.41,4.61h0Zm-4.69-4h-.24c-.3,0-.42.11-.43.16-.08.49,2.42,2.05,4.95,3.33C356,120.13,354.29,117.68,352.36,117.68Zm5-4.26h-.14a.9.9,0,0,0-.59.43c-.88,1.41,0,5.55.39,7.08.59-2.17,1.52-6.45.69-7.36A.43.43,0,0,0,357.39,113.42Z"/><path class="cls-57" d="M139.6,222.23c.92,8.64,17.09,11.05,31,11.88s2.93-5.8-9.39-10.78S138.86,215.32,139.6,222.23Z"/><path class="cls-21" d="M151.23,73.1h-.06a.1.1,0,0,1,0-.15,7.09,7.09,0,0,1,1.93-2A3.64,3.64,0,0,0,150.42,72a.11.11,0,0,1-.16,0,.11.11,0,0,1,0-.15,3.58,3.58,0,0,1,3.2-1.09.1.1,0,0,1,0,.2,6.43,6.43,0,0,0-2.16,2.09A.1.1,0,0,1,151.23,73.1Z"/><path class="cls-21" d="M160.14,68.52a.11.11,0,0,1-.07,0,.11.11,0,0,1,0-.12,3.35,3.35,0,0,1,2.76-1.61.11.11,0,0,1,.12.09.1.1,0,0,1-.09.12,3.48,3.48,0,0,0-2.41,1.21,6.84,6.84,0,0,1,2.62-.13.11.11,0,0,1,.09.12.13.13,0,0,1-.12.1,5.81,5.81,0,0,0-2.83.24Z"/><path class="cls-21" d="M148,70.81a2.46,2.46,0,0,1,1.87-1.76c1.62-.43,2.55-1,2.12-1.54S147.18,67.9,148,70.81Z"/><path class="cls-21" d="M163.11,64.76a2.48,2.48,0,0,0-2.57.07c-1.45.84-2.51,1.1-2.59.41S161.61,62.14,163.11,64.76Z"/><path class="cls-53" d="M158.73,76a.22.22,0,0,1-.07-.42c1-.33,2.6-1.12,2.73-2,.05-.37-.19-.74-.71-1.11a14.43,14.43,0,0,1-3.89-4.72.21.21,0,1,1,.38-.2,14.6,14.6,0,0,0,3.75,4.57c.68.47,1,1,.9,1.52-.17,1.11-2,2-3,2.31Z"/><path class="cls-52" d="M165.14,78.11a4.49,4.49,0,0,1-3,3.9,7.52,7.52,0,0,1-5.46-1,9.21,9.21,0,0,1-1-.62l9.48-3.31A6.08,6.08,0,0,1,165.14,78.11Z"/><path class="cls-36" d="M165.14,78.11l-8.42,3a9.21,9.21,0,0,1-1-.62l9.48-3.31A6.08,6.08,0,0,1,165.14,78.11Z"/><path class="cls-21" d="M155.27,80.65,165.72,77a4.55,4.55,0,0,0-5.33-1.27C157.32,76.83,156.51,77.49,155.27,80.65Z"/><path class="cls-58" d="M357.17,93.31a2.08,2.08,0,1,1-2.08-2.08A2.08,2.08,0,0,1,357.17,93.31Z"/><path class="cls-58" d="M374.85,121.56a2.08,2.08,0,1,1-2.07-2.07A2.08,2.08,0,0,1,374.85,121.56Z"/><path class="cls-59" d="M420.18,49.67c0,3.79-12.87,6.86-28.73,6.86a101.1,101.1,0,0,1-16.71-1.28c-7.28-1.24-12-3.28-12-5.58,0-1.69,2.57-3.24,6.83-4.44A55.16,55.16,0,0,1,376,43.88a102,102,0,0,1,12.61-1c.92,0,1.87,0,2.83,0s1.9,0,2.83,0a102.44,102.44,0,0,1,12.48,1C414.82,45.08,420.18,47.23,420.18,49.67Z"/><path class="cls-60" d="M420.18,49.67c0,3.79-12.87,6.86-28.73,6.86a101.1,101.1,0,0,1-16.71-1.28c-7.28-1.24-12-3.28-12-5.58a11.48,11.48,0,0,1,3.81-8.13,24.17,24.17,0,0,1,7.25-4.74,44,44,0,0,1,17.68-3.46c10.61,0,19.87,3.27,24.85,8.13A11.5,11.5,0,0,1,420.18,49.67Z"/><path class="cls-36" d="M391.45,54.74h0a2.83,2.83,0,0,1-2.83-2.83V42a2.83,2.83,0,0,1,2.83-2.83h0A2.83,2.83,0,0,1,394.27,42v9.94A2.83,2.83,0,0,1,391.45,54.74Z"/><path class="cls-52" d="M416.3,41.47a42.58,42.58,0,0,1-9.54,2.39,100.08,100.08,0,0,1-12.48,1c-1,0-2,0-3,0s-1.81,0-2.7,0a100.3,100.3,0,0,1-12.61-1,56,56,0,0,1-5.94-1.19,29.74,29.74,0,0,1-3.55-1.15,24.17,24.17,0,0,1,7.25-4.74,44,44,0,0,1,17.68-3.46C402.06,33.34,411.32,36.61,416.3,41.47Z"/><rect class="cls-60" x="390.37" width="2.08" height="33.34"/><path class="cls-61" d="M374.74,55.25c-7.28-1.24-12-3.28-12-5.58a11.48,11.48,0,0,1,3.81-8.13,24.17,24.17,0,0,1,7.25-4.74,15.94,15.94,0,0,0-3.7,5.89,10.44,10.44,0,0,0-.53,2.54C369.26,48.49,370.56,52,374.74,55.25Z"/><path class="cls-2" d="M40.88,182.39a78.44,78.44,0,0,0-5.36-21.31C31.3,150.76,22.89,137.3,6.75,131.74l.14-.4c16.29,5.6,24.78,19.18,29,29.59a78.86,78.86,0,0,1,5.38,21.43Z"/><path class="cls-2" d="M39.28,171.31s-13.06-5.14-24.23-4.84C15.05,166.47,23.48,170.66,39.28,171.31Z"/><path class="cls-2" d="M33.63,156.4s-13.05-5.13-24.23-4.83C9.4,151.57,17.84,155.76,33.63,156.4Z"/><path class="cls-2" d="M21.33,140S10.66,130.86,0,127.5C0,127.5,6.61,134.2,21.33,140Z"/><path class="cls-2" d="M31.59,147.43S18.53,142.3,7.36,142.6C7.36,142.6,15.79,146.78,31.59,147.43Z"/><path class="cls-2" d="M33.13,156.51s.81-14-3-24.53C30.18,132,28.82,141.3,33.13,156.51Z"/><path class="cls-2" d="M28.13,147.39s.81-14-2.95-24.53C25.18,122.86,23.83,132.18,28.13,147.39Z"/><path class="cls-2" d="M36.36,162.41s5.67-12.83,5.84-24C42.2,138.4,37.67,146.65,36.36,162.41Z"/><path class="cls-2" d="M39.28,171.21s5.68-12.83,5.85-24C45.13,147.2,40.59,155.45,39.28,171.21Z"/><path class="cls-2" d="M35.89,162.25s-7.88-3.64-22.65-1.7C13.24,160.55,25,163.32,35.89,162.25Z"/><path class="cls-2" d="M47.34,199.63C41.19,165.12,49.12,131.25,55,109A267.29,267.29,0,0,1,68.92,68.54l.39.19a326.43,326.43,0,0,0-13.16,40.18c-5.87,22.23-12.69,56.16-8.38,90.67Z"/><path class="cls-2" d="M52.54,117.07s10.65-18,20.09-22.77,13.06-7.78,13.06-7.78S58.77,118.07,52.54,117.07Z"/><path class="cls-2" d="M41.11,132.92s-.36-13.08,1.92-19.44a76.57,76.57,0,0,1,5.82-12.21S44.3,128.12,41.11,132.92Z"/><path class="cls-2" d="M44.53,147.25s-.08-15,2.7-22.25a89.26,89.26,0,0,1,7-13.85S48.31,141.84,44.53,147.25Z"/><path class="cls-2" d="M46.79,154.49s2.81-14.75,6.93-21.31a88.06,88.06,0,0,1,9.52-12.25S51.55,149.9,46.79,154.49Z"/><path class="cls-2" d="M48.31,131.94s11-10.16,18.27-13a88.88,88.88,0,0,1,15-4.14S54.86,131.09,48.31,131.94Z"/><path class="cls-2" d="M57.51,104.42s-7.95-12.73-9.39-20.35A89.17,89.17,0,0,1,46.8,68.61S57.89,97.83,57.51,104.42Z"/><path class="cls-2" d="M61.87,86.57S69.71,75.72,76.4,71.63s10-6.55,10-6.55S72.77,81.33,61.87,86.57Z"/><path class="cls-2" d="M57.13,103.93s21.64-17.69,28.4-32.52C85.53,71.41,66.22,83.2,57.13,103.93Z"/><path class="cls-2" d="M68.83,69.59a149,149,0,0,1,0-22.92A90,90,0,0,1,71.6,32.62S75.68,38.79,68.83,69.59Z"/><path class="cls-2" d="M61.87,85.49A148.73,148.73,0,0,1,56,63.35,89.6,89.6,0,0,1,55,49.06S60.56,54,61.87,85.49Z"/><path class="cls-2" d="M37.32,122.09a116,116,0,0,1-.17-17.94,69.62,69.62,0,0,1,2.06-11S42.45,97.93,37.32,122.09Z"/><path class="cls-2" d="M37.47,121.2a116.31,116.31,0,0,1-14.3-10.84A69.74,69.74,0,0,1,15.72,102S21.49,102.36,37.47,121.2Z"/><path class="cls-2" d="M68,69.64A115.33,115.33,0,0,1,62.9,52.43a69.66,69.66,0,0,1-1-11.16S66.3,45,68,69.64Z"/><path class="cls-2" d="M34.48,115.46a115.07,115.07,0,0,1-5-17.22,70.27,70.27,0,0,1-1-11.16S32.84,90.81,34.48,115.46Z"/><path class="cls-2" d="M27.17,97.8A116,116,0,0,1,16.54,83.34a71,71,0,0,1-4.76-10.15S17.21,75.19,27.17,97.8Z"/><path class="cls-2" d="M46.17,158.31A116.73,116.73,0,0,1,31,148.8a70.22,70.22,0,0,1-8.18-7.67S28.57,141,46.17,158.31Z"/><path class="cls-2" d="M43.57,144.26A136.91,136.91,0,0,1,25.46,133,83.08,83.08,0,0,1,15.72,124S22.59,123.77,43.57,144.26Z"/><path class="cls-2" d="M41.09,132.92A138.14,138.14,0,0,1,23,121.7a82.72,82.72,0,0,1-9.74-9.07S20.11,112.43,41.09,132.92Z"/><path class="cls-2" d="M68.37,69.35S72.2,63,77.7,60C82.81,57.25,87,55.45,87,55.45S75,67.73,68.37,69.35Z"/><path class="cls-2" d="M45.72,160.87C43.56,131,25.24,94.07,25.05,93.69l.39-.19c.19.37,19.15,37.68,21.31,67.69Z"/><path class="cls-2" d="M47.23,180.51l-1.27.21c1.73-14.46,12.42-26.36,21.08-33.79a107.59,107.59,0,0,1,18.55-12.79l.2.39a106.89,106.89,0,0,0-18.48,12.73C58.71,154.65,49,166.19,47.23,180.51Z"/><path class="cls-2" d="M54.22,160.2s8.85-4.74,21.82-1.57C76,158.63,70.15,162.36,54.22,160.2Z"/><path class="cls-2" d="M65.92,147.84s1.55-12.13,3.74-16.15S80,126.14,80,126.14,72.82,126.61,65.92,147.84Z"/><path class="cls-2" d="M60.12,154.28a46.15,46.15,0,0,0,24.2,0S67.61,151.59,60.12,154.28Z"/><path class="cls-2" d="M57.13,157.1a27.54,27.54,0,0,1-2.91-11.86,44.13,44.13,0,0,1,1.46-12.32S59.91,145.66,57.13,157.1Z"/><path class="cls-2" d="M59.83,154s-.14-13.14,2.31-19.55,4.51-9.06,4.51-9.06S65.74,148,59.83,154Z"/><path class="cls-2" d="M55,160.55s-1.1-11.89-3.54-16A93.61,93.61,0,0,1,46.53,134S46.89,151.69,55,160.55Z"/><path class="cls-2" d="M51.65,164.38s8.15,0,10.36,1S68.6,172,68.6,172,62.69,166.54,51.65,164.38Z"/><path class="cls-2" d="M46.08,161.87S42,150.17,35.89,144A30.77,30.77,0,0,0,46.08,161.87Z"/><path class="cls-2" d="M65.93,147.69a33.42,33.42,0,0,1,18.55.58A43.64,43.64,0,0,1,65.93,147.69Z"/><path class="cls-2" d="M72.52,142.88a19.67,19.67,0,0,1,9.31-14.48S76.71,139.22,72.52,142.88Z"/><path class="cls-2" d="M82.44,135.91a13.73,13.73,0,0,1,10.4-6S86.21,135,82.44,135.91Z"/><path class="cls-2" d="M73.41,142.26c-.41.14,5.72,3.36,14.8,1.3C88.21,143.56,80,140,73.41,142.26Z"/><path class="cls-2" d="M79.55,138.11c-.39.2,6.17,2.46,14.82-1C94.37,137.16,85.72,134.9,79.55,138.11Z"/><path class="cls-36" d="M27,177.25s1.1,45.18,21.12,45.18S68.4,177.25,68.4,177.25Z"/><path class="cls-62" d="M513.14,217.29l7.06,68v0a.37.37,0,0,0,.73,0l7.32-68.93,17-6.56,5.66,54.92a.37.37,0,1,0,.73-.05V207.35l-36,9.3Z"/><path class="cls-63" d="M513.14,217.29l7.06,68V219.47s-2.06-1.42-4.56-2.82Z"/><path class="cls-62" d="M415.22,188l-4.88,52a.37.37,0,1,1-.73,0l-1-54S416.8,184.14,415.22,188Z"/><path class="cls-62" d="M435.5,176.24l1.84,18.56L440.72,229a.37.37,0,0,0,.73,0l2.69-32L446,175.31h0l-4.84.43Z"/><path class="cls-63" d="M428.1,178.91c.44,3.51,1.1,8.31,2,13.65l7.27,2.24,3.36,34c.05.5.41.69.41.18V174.21l-5.61,2Z"/><polygon class="cls-62" points="408.62 187.61 415.22 189.49 430.07 193.72 437.33 195.78 441.12 196.86 444.14 197.72 513.14 217.34 513.14 217.34 520.2 219.35 527.47 216.77 528.25 216.49 545.24 210.44 551.59 208.19 551.63 208.17 445.96 177.79 445.95 177.79 441.71 176.58 441.12 176.78 435.5 178.65 433.96 179.17 433.52 179.31 428.11 181.12 408.62 187.61"/><polygon class="cls-52" points="408.62 185.04 415.22 186.92 430.07 191.15 437.33 193.21 441.12 194.29 444.14 195.15 513.14 214.78 513.14 214.78 520.2 216.78 527.47 214.2 528.25 213.92 545.24 207.87 551.59 205.62 551.63 205.6 445.96 175.22 445.95 175.22 441.71 174.01 441.12 174.21 435.5 176.09 433.96 176.6 433.52 176.74 428.11 178.55 408.62 185.04"/><path class="cls-61" d="M439.31,188.57c19.48,19.47,91.86,17.9,112.28,17.05l0,0L446,175.23h0L441.72,174l-.61.2-5.61,1.88-1.54.51C433.1,179.83,434.53,183.78,439.31,188.57Z"/><polygon class="cls-64" points="457.01 190.46 459.14 191.07 463.94 192.43 466.29 193.1 467.51 193.45 468.49 193.73 490.8 200.07 490.8 200.07 493.08 200.72 495.43 199.88 495.68 199.79 501.18 197.84 503.24 197.1 469.08 187.29 469.08 187.29 467.71 186.89 467.51 186.96 465.7 187.56 465.06 187.78 463.31 188.36 457.01 190.46"/><polygon class="cls-65" points="503.24 195.21 503.24 197.1 493.08 200.72 493.08 198.83 503.24 195.21"/><polygon class="cls-39" points="457.01 188.57 457.01 190.46 493.08 200.72 493.08 198.56 457.01 188.57"/><polygon class="cls-66" points="457.01 188.57 459.14 189.18 463.94 190.54 466.29 191.21 467.51 191.56 468.49 191.84 490.8 198.18 490.8 198.18 493.08 198.83 495.43 198 495.68 197.91 501.18 195.95 503.24 195.21 469.08 185.4 469.08 185.4 467.71 185 467.51 185.07 465.7 185.67 465.06 185.89 463.31 186.47 457.01 188.57"/><polygon class="cls-39" points="483.49 193.81 474.7 191.28 474.7 172.07 483.49 174.61 483.49 193.81"/><polygon class="cls-65" points="483.49 193.81 485.13 193.27 485.13 174.07 483.49 174.61 483.49 193.81"/><polygon class="cls-66" points="476.34 171.53 474.7 172.07 483.49 174.61 485.13 174.07 476.34 171.53"/><path class="cls-39" d="M439.44,162.14l81.95,23.42a1.29,1.29,0,0,0,1.65-1.25V121.68a1.3,1.3,0,0,0-.94-1.25L440,97a1.3,1.3,0,0,0-1.65,1.25l.15,62.65A1.3,1.3,0,0,0,439.44,162.14Z"/><path class="cls-39" d="M438.3,163l81.95,23.42a1.29,1.29,0,0,0,1.65-1.25V122.54a1.3,1.3,0,0,0-.94-1.25l-82.1-23.43a1.3,1.3,0,0,0-1.65,1.25l.15,62.65A1.28,1.28,0,0,0,438.3,163Z"/><path class="cls-3" d="M441.65,161.49l76,21.73a1.2,1.2,0,0,0,1.53-1.16V124a1.19,1.19,0,0,0-.87-1.15l-76.15-21.73a1.19,1.19,0,0,0-1.53,1.15l.14,58.11A1.18,1.18,0,0,0,441.65,161.49Z"/><polygon class="cls-62" points="551.59 208.19 551.63 205.6 520.2 216.78 520.2 219.35 551.59 208.19"/><polygon class="cls-62" points="408.62 185.05 408.62 186.08 414.18 186.63 408.62 185.05"/><path class="cls-7" d="M207.9,63.46a5.73,5.73,0,1,1,5.73-5.73A5.74,5.74,0,0,1,207.9,63.46Zm0-11a5.3,5.3,0,1,0,5.3,5.3A5.3,5.3,0,0,0,207.9,52.43Z"/><polygon class="cls-7" points="204.19 57.93 204.05 57.52 205.49 57.03 204.04 56.48 204.2 56.08 206.76 57.05 204.19 57.93"/><polygon class="cls-7" points="211.53 57.93 208.97 57.05 211.53 56.08 211.68 56.48 210.24 57.03 211.68 57.52 211.53 57.93"/><path class="cls-7" d="M207.9,61.61a2.73,2.73,0,0,1-2.73-2.73v-.22h5.47v.22A2.74,2.74,0,0,1,207.9,61.61Zm-2.29-2.52a2.31,2.31,0,0,0,4.59,0Z"/><path class="cls-7" d="M216.76,78.32a3,3,0,1,1,3-3A3,3,0,0,1,216.76,78.32Zm0-5.55a2.56,2.56,0,1,0,2.56,2.55A2.56,2.56,0,0,0,216.76,72.77Z"/><path class="cls-7" d="M230.31,50.7a3,3,0,1,1,3-3A3,3,0,0,1,230.31,50.7Zm0-5.55a2.56,2.56,0,1,0,2.56,2.56A2.56,2.56,0,0,0,230.31,45.15Z"/><path class="cls-7" d="M195.66,44.44a1.63,1.63,0,1,1,1.62-1.63A1.63,1.63,0,0,1,195.66,44.44Zm0-2.82a1.19,1.19,0,1,0,1.19,1.19A1.19,1.19,0,0,0,195.66,41.62Z"/><path class="cls-7" d="M257.76,21.64A1.63,1.63,0,1,1,259.39,20,1.63,1.63,0,0,1,257.76,21.64Zm0-2.82A1.2,1.2,0,1,0,259,20,1.19,1.19,0,0,0,257.76,18.82Z"/><path class="cls-10" d="M150.1,73s-1.73,1.64-1.06,2.18c.49.39.74-.69.81-1.09S150.1,73,150.1,73Z"/><path class="cls-3" d="M513.53,178l-68-19.62a7.31,7.31,0,0,1-5-6.56l0-44.26c0-2.81,2.27-4.45,5-3.65l68,19.62a7.3,7.3,0,0,1,5,6.56l0,44.26C518.57,177.2,516.3,178.84,513.53,178Z"/><polygon class="cls-10" points="473.76 127.35 464.1 118.79 468.24 129.62 451.24 125 463.25 134.04 454.07 141.25 465.83 145.84 466.84 160.63 477.67 154.51 490.56 164.03 490.23 152.21 500.26 149.87 494.04 141.48 504.14 131.74 490.16 131.73 488.7 122.39 479.63 127.56 475.24 116.67 473.76 127.35"/><polygon class="cls-10" points="497.41 156.33 501.68 156.85 504.92 159.78 497.41 156.33"/><polygon class="cls-10" points="457.93 149.21 453.52 152.26 456.76 152.28 457.93 149.21"/><polygon class="cls-10" points="458.46 132.36 454.96 130.39 451.23 130.28 456.64 133.23 458.46 132.36"/><polygon class="cls-10" points="506.1 138.04 508.69 136.6 511.15 136.54 510.11 138.28 506.1 138.04"/><polygon class="cls-10" points="480.33 158.42 482.47 160.62 482.47 162.84 480.33 158.42"/><polygon class="cls-10" points="492.25 127.3 494.2 125.95 494.2 123.04 492.25 127.3"/><polygon class="cls-10" points="457.95 118 455.75 116.24 456.85 117.68 457.95 118"/><polygon class="cls-10" points="502.21 146.84 504.13 146.94 505.44 148.1 502.21 146.84"/><polygon class="cls-10" points="478.79 161.78 478.78 164.67 477.62 162.89 478.79 161.78"/><path class="cls-67" d="M481.07,142.43a3.42,3.42,0,1,1,.82-5"/></g></g></g></svg>